<svg width="45" height="29" viewBox="0 0 45 29" fill="none" xmlns="http://www.w3.org/2000/svg">
<g id="amazonpay.svg">
<path id="Vector" fill-rule="evenodd" clip-rule="evenodd" d="M17.9327 18.5154C16.3762 19.7098 14.1176 20.3447 12.1749 20.3447C9.45046 20.3447 6.99754 19.2987 5.14147 17.557C4.99636 17.4208 5.12509 17.2335 5.30063 17.3381C7.30416 18.5495 9.78048 19.2792 12.3387 19.2792C14.0637 19.2792 15.9619 18.9071 17.7056 18.1384C17.9701 18.0216 18.1901 18.3184 17.9327 18.5154Z" fill="#F8991D"/>
<path id="Vector_2" fill-rule="evenodd" clip-rule="evenodd" d="M18.5831 17.7457C18.3841 17.4806 17.2677 17.6192 16.7645 17.6825C16.6123 17.7019 16.5889 17.5633 16.7247 17.4636C17.6164 16.8141 19.0769 17.0014 19.2455 17.2179C19.4163 17.4368 19.201 18.9596 18.3654 19.6844C18.2367 19.7963 18.115 19.7355 18.1711 19.5896C18.3607 19.1031 18.782 18.0109 18.5831 17.7457Z" fill="#F8991D"/>
<path id="Vector_3" fill-rule="evenodd" clip-rule="evenodd" d="M16.798 12.8677V12.2352C16.798 12.1379 16.8682 12.0747 16.9525 12.0747H19.6792C19.7658 12.0747 19.8361 12.1404 19.8361 12.2352V12.7777C19.8361 12.8677 19.7612 12.9869 19.6301 13.1766L18.2187 15.271C18.743 15.2589 19.2977 15.3391 19.7729 15.6189C19.8805 15.6821 19.9086 15.7745 19.918 15.8645V16.5384C19.918 16.6308 19.8197 16.7378 19.7167 16.6819C18.8788 16.2246 17.7646 16.1759 16.8354 16.6867C16.7395 16.7403 16.6412 16.6332 16.6412 16.5408V15.8986C16.6412 15.7964 16.6435 15.6213 16.7418 15.4632L18.3779 13.0234H16.9525C16.8682 13.0258 16.798 12.9626 16.798 12.8677Z" fill="#333E47"/>
<path id="Vector_4" fill-rule="evenodd" clip-rule="evenodd" d="M6.85156 16.8163H6.023C5.94342 16.8115 5.88023 16.7482 5.87555 16.6704V12.2456C5.87555 12.1581 5.9481 12.0875 6.03471 12.0875H6.80709C6.88901 12.0924 6.95221 12.1556 6.95689 12.2359V12.8124H6.97327C7.17456 12.2529 7.55374 11.9927 8.06398 11.9927C8.58359 11.9927 8.90893 12.2529 9.14064 12.8124C9.34193 12.2529 9.79834 11.9927 10.2875 11.9927C10.6363 11.9927 11.0154 12.141 11.2472 12.4767C11.5093 12.8489 11.4555 13.3889 11.4555 13.8633V16.6558C11.4555 16.7434 11.3829 16.8139 11.2963 16.8139H10.4677C10.3835 16.809 10.3179 16.7409 10.3179 16.6558V14.3108C10.3179 14.126 10.3343 13.6589 10.2945 13.4838C10.2337 13.1846 10.0464 13.1019 9.80771 13.1019C9.60642 13.1019 9.39811 13.2405 9.3115 13.4643C9.22724 13.6881 9.23427 14.0603 9.23427 14.3108V16.6558C9.23427 16.7434 9.16171 16.8139 9.07511 16.8139H8.24654C8.16228 16.809 8.09675 16.7409 8.09675 16.6558V14.3108C8.09675 13.817 8.17399 13.0922 7.5865 13.0922C6.98966 13.0922 7.01306 13.8 7.01306 14.3108V16.6558C7.01306 16.7458 6.94051 16.8163 6.85156 16.8163Z" fill="#333E47"/>
<path id="Vector_5" fill-rule="evenodd" clip-rule="evenodd" d="M22.1917 12.8966C21.5809 12.8966 21.5411 13.7626 21.5411 14.3026C21.5411 14.8426 21.5341 15.9956 22.1847 15.9956C22.8284 15.9956 22.8588 15.064 22.8588 14.4972C22.8588 14.125 22.8424 13.6774 22.7348 13.3247C22.6388 13.0158 22.4539 12.8966 22.1917 12.8966ZM22.1824 11.9941C23.4135 11.9941 24.0782 13.0936 24.0782 14.4899C24.0782 15.8399 23.3433 16.9102 22.1824 16.9102C20.9747 16.9102 20.317 15.8107 20.317 14.4437C20.317 13.0644 20.984 11.9941 22.1824 11.9941Z" fill="#333E47"/>
<path id="Vector_6" fill-rule="evenodd" clip-rule="evenodd" d="M25.6758 16.8154H24.8496C24.7676 16.8105 24.6998 16.7424 24.6998 16.6573V12.2301C24.7068 12.1498 24.7747 12.0866 24.8589 12.0866H25.629C25.7015 12.0914 25.76 12.1425 25.7764 12.2106V12.8869H25.7928C26.0245 12.2812 26.3499 11.9941 26.9233 11.9941C27.2955 11.9941 27.6582 12.1328 27.89 12.5147C28.1076 12.8674 28.1076 13.4634 28.1076 13.8915V16.6743C28.0983 16.7521 28.0304 16.8129 27.9485 16.8129H27.1176C27.0403 16.8081 26.9795 16.7497 26.9701 16.6743V14.2734C26.9701 13.7893 27.0239 13.0815 26.4505 13.0815C26.2492 13.0815 26.0643 13.2201 25.9707 13.4342C25.8537 13.7042 25.8396 13.9742 25.8396 14.2734V16.6548C25.8349 16.7448 25.7647 16.8154 25.6758 16.8154Z" fill="#333E47"/>
<path id="Vector_7" fill-rule="evenodd" clip-rule="evenodd" d="M15.4652 16.8026C15.4114 16.8537 15.3318 16.8561 15.2686 16.822C14.9924 16.5836 14.9433 16.4742 14.7935 16.248C14.3394 16.7296 14.0164 16.8756 13.4266 16.8756C12.7291 16.8756 12.1861 16.428 12.1861 15.5328C12.1861 14.8322 12.5512 14.3579 13.0708 14.1244C13.5202 13.92 14.1498 13.8811 14.6296 13.8252V13.7133C14.6296 13.5089 14.646 13.2657 14.529 13.0881C14.4284 12.93 14.2341 12.8643 14.0632 12.8643C13.7473 12.8643 13.4664 13.0322 13.3962 13.3824C13.3821 13.4603 13.3283 13.5381 13.2534 13.5406L12.4482 13.4506C12.3804 13.4335 12.3055 13.3776 12.3242 13.2706C12.5068 12.2708 13.3657 11.9594 14.1451 11.9521H14.206C14.6062 11.957 15.1165 12.0713 15.4254 12.3803C15.828 12.7719 15.7906 13.2949 15.7906 13.8641V15.2068C15.7906 15.6106 15.9521 15.7882 16.1042 16.0047C16.158 16.0825 16.1697 16.1774 16.1019 16.2334C15.9333 16.3817 15.6314 16.6518 15.4652 16.8026ZM14.6273 14.7009C14.6273 15.0366 14.6343 15.3163 14.4728 15.6155C14.3418 15.8588 14.1311 16.0071 13.8994 16.0071C13.5811 16.0071 13.3962 15.7542 13.3962 15.382C13.3962 14.6474 14.0305 14.5136 14.6296 14.5136V14.7009H14.6273Z" fill="#333E47"/>
<path id="Vector_8" fill-rule="evenodd" clip-rule="evenodd" d="M4.58828 16.806C4.53445 16.8571 4.45487 16.8595 4.39167 16.8254C4.11548 16.5871 4.06633 16.4776 3.91654 16.2514C3.46012 16.733 3.13947 16.879 2.54964 16.879C1.85215 16.879 1.30914 16.4314 1.30914 15.5362C1.30914 14.8356 1.67427 14.3613 2.19388 14.1278C2.64327 13.9234 3.27288 13.8845 3.7527 13.8286V13.7167C3.7527 13.5123 3.76908 13.2691 3.65205 13.0915C3.55141 12.9334 3.35714 12.8677 3.18628 12.8677C2.8703 12.8677 2.58943 13.0356 2.51922 13.3859C2.50517 13.4637 2.45134 13.5391 2.37644 13.544L1.57128 13.454C1.50341 13.4369 1.42851 13.381 1.44723 13.2715C1.6298 12.2718 2.48879 11.9604 3.2682 11.9531H3.32905C3.72929 11.958 4.23953 12.0723 4.54849 12.3812C4.95107 12.7729 4.91362 13.2959 4.91362 13.8651V15.2078C4.91362 15.6116 5.07512 15.7892 5.22726 16.0057C5.28109 16.0835 5.29279 16.1784 5.22491 16.2343C5.05873 16.3852 4.7568 16.6552 4.58828 16.806ZM3.7527 14.7043C3.7527 15.04 3.75972 15.3197 3.59822 15.6189C3.46715 15.8622 3.2565 16.0105 3.02478 16.0105C2.70646 16.0105 2.52156 15.7576 2.52156 15.3854C2.52156 14.6508 3.15585 14.517 3.75504 14.517V14.7043H3.7527Z" fill="#333E47"/>
<path id="Vector_9" fill-rule="evenodd" clip-rule="evenodd" d="M39.4475 18.4027C39.4475 18.2908 39.4475 18.191 39.4475 18.0767C39.4475 17.9843 39.492 17.921 39.5833 17.9259C39.7565 17.9527 40.0022 17.977 40.1754 17.9405C40.4025 17.8918 40.5663 17.724 40.6623 17.4953C40.798 17.1718 40.887 16.9115 40.9455 16.7413L39.2205 12.2995C39.1924 12.2241 39.183 12.083 39.3282 12.083H39.932C40.0467 12.083 40.0935 12.1584 40.1193 12.2338L41.3691 15.8412L42.5628 12.2338C42.5862 12.1608 42.6354 12.083 42.7501 12.083H43.3188C43.4616 12.083 43.4546 12.2216 43.4265 12.2995L41.7155 16.8799C41.4932 17.4905 41.1983 18.461 40.5336 18.6289C40.2012 18.7189 39.7799 18.6873 39.5341 18.5802C39.4709 18.5486 39.4475 18.461 39.4475 18.4027Z" fill="#333E47"/>
<path id="Vector_10" fill-rule="evenodd" clip-rule="evenodd" d="M38.6402 16.5471C38.6402 16.6298 38.5747 16.6979 38.4951 16.6979H38.0691C37.9778 16.6979 37.9146 16.6298 37.9029 16.5471L37.8608 16.2455C37.6642 16.4182 37.4255 16.569 37.1657 16.6736C36.6648 16.8755 36.089 16.9096 35.5998 16.5982C35.2464 16.372 35.0591 15.9317 35.0591 15.4768C35.0591 15.1241 35.1645 14.7763 35.3938 14.5233C35.7028 14.1779 36.1498 14.0076 36.6905 14.0076C37.0159 14.0076 37.484 14.0465 37.8234 14.1633V13.5551C37.8234 12.9397 37.5729 12.6721 36.9152 12.6721C36.412 12.6721 36.0281 12.75 35.4921 12.9227C35.4055 12.9251 35.3564 12.857 35.3564 12.7743V12.4337C35.3564 12.351 35.4243 12.2708 35.4992 12.2464C35.8807 12.0737 36.4214 11.9643 36.9971 11.9448C37.7461 11.9448 38.6379 12.1199 38.6379 13.3192V16.5471H38.6402ZM37.8234 15.6617V14.7471C37.5378 14.6668 37.065 14.6327 36.8824 14.6327C36.5946 14.6327 36.2762 14.7033 36.1124 14.8882C35.9883 15.0244 35.9322 15.219 35.9322 15.4063C35.9322 15.6495 36.0141 15.8928 36.2013 16.0144C36.4214 16.1701 36.7607 16.1506 37.0814 16.0558C37.3904 15.9658 37.6782 15.8052 37.8234 15.6617Z" fill="#333E47"/>
<path id="Vector_11" fill-rule="evenodd" clip-rule="evenodd" d="M32.3678 12.6858C33.311 12.6858 33.5685 13.4569 33.5685 14.3399C33.5732 14.9358 33.4678 15.4661 33.1706 15.7702C32.9482 15.9988 32.7001 16.0597 32.328 16.0597C31.9956 16.0597 31.5579 15.8797 31.2326 15.6291V13.1041C31.572 12.8341 32.005 12.6858 32.3678 12.6858ZM31.0875 18.5603H30.5187C30.4391 18.5603 30.3736 18.4922 30.3736 18.4095C30.3736 16.354 30.3736 14.2961 30.3736 12.2406C30.3736 12.1579 30.4391 12.0898 30.5187 12.0898H30.9541C31.0453 12.0898 31.1085 12.1579 31.1202 12.2406L31.167 12.5641C31.5766 12.1871 32.1009 11.9463 32.6018 11.9463C34.0038 11.9463 34.4673 13.1479 34.4673 14.3982C34.4673 15.7361 33.7604 16.8089 32.569 16.8089C32.0658 16.8089 31.5954 16.6167 31.2349 16.281V18.4119C31.2326 18.4946 31.167 18.5603 31.0875 18.5603Z" fill="#333E47"/>
</g>
</svg>
