<svg width="35" height="29" viewBox="0 0 35 29" fill="none" xmlns="http://www.w3.org/2000/svg">
<g id="american-express.svg" clip-path="url(#clip0_1_988)">
<g id="Clip path group">
<mask id="mask0_1_988" style="mask-type:luminance" maskUnits="userSpaceOnUse" x="0" y="0" width="34" height="29">
<g id="clip0_2598_6265">
<path id="Vector" d="M33.8652 0.0449219H0.160004V28.0449H33.8652V0.0449219Z" fill="white"/>
</g>
</mask>
<g mask="url(#mask0_1_988)">
<g id="Group">
<path id="Vector_2" d="M3.04868 11.4855H4.22572L3.6372 9.98193L3.04868 11.4855Z" fill="#2FABF7"/>
<path id="Vector_3" d="M17.6541 10.1973C17.5471 10.1436 17.3866 10.1436 17.2261 10.1436H16.1561V11.0028H17.2261C17.3866 11.0028 17.5471 11.0028 17.6541 10.9491C17.7612 10.8954 17.8147 10.7343 17.8147 10.5732C17.8682 10.3584 17.7612 10.251 17.6541 10.1973Z" fill="#228FE0"/>
<path id="Vector_4" d="M29.1044 8.58447V9.22885L28.7834 8.58447H26.2688V9.22885L25.9478 8.58447H22.5237C21.9352 8.58447 21.4537 8.69187 21.0257 8.90666V8.58447H18.6181V8.90666C18.3506 8.69187 18.0296 8.58447 17.6016 8.58447H8.98778L8.39926 9.92693L7.81074 8.58447H5.08216V9.22885L4.76115 8.58447H2.46057L1.39054 11.1083L0.160004 13.9006H1.39054H2.88859L3.2096 13.0414H3.95862L4.27963 13.9006H7.38273V13.2562L7.65024 13.9006H9.20179L9.4693 13.2562V13.9006H16.906V12.5044H17.013C17.12 12.5044 17.12 12.5044 17.12 12.6655V13.8469H20.9722V13.5247C21.2932 13.6858 21.7747 13.8469 22.4167 13.8469H24.0218L24.3428 12.9877H25.0918L25.4128 13.8469H28.5159V13.0414L28.9974 13.8469H31.512V8.58447H29.1044ZM11.0208 13.0951H10.1113V10.1417L8.82728 13.0951H8.02475L6.74071 10.1417V13.0951H4.92165L4.54714 12.2896H2.72808L2.40707 13.1488H1.39054L2.99559 9.33625H4.33313L5.83118 12.934V9.33625H7.27573L8.45276 11.9137L9.5228 9.33625H11.0208V13.0951ZM14.659 10.1417H12.5724V10.8398H14.6055V11.5916H12.5724V12.3433H14.659V13.1488H11.6629V9.33625H14.659V10.1417ZM18.6716 11.699C18.7786 11.9137 18.8321 12.0748 18.8321 12.397V13.1488H17.9226V12.6655C17.9226 12.4507 17.9226 12.1285 17.7621 11.9137C17.6016 11.7526 17.441 11.7526 17.12 11.7526H16.157V13.1488H15.2475V9.33625H17.2805C17.7621 9.33625 18.0831 9.33625 18.3506 9.49734C18.6181 9.65844 18.7786 9.92693 18.7786 10.3565C18.7786 10.9472 18.4041 11.2694 18.1366 11.3768C18.4041 11.4305 18.5646 11.5916 18.6716 11.699ZM20.2766 13.0951H19.3671V9.28255H20.2766V13.0951ZM30.8165 13.0951H29.5324L27.8204 10.2491V13.0951H26.0013L25.6803 12.2896H23.8078L23.4867 13.1488H22.4702C22.0422 13.1488 21.5072 13.0414 21.1862 12.7192C20.8652 12.397 20.7047 11.9674 20.7047 11.2694C20.7047 10.7324 20.8117 10.1954 21.1862 9.76583C21.4537 9.44364 21.9352 9.33625 22.5237 9.33625H23.3797V10.1417H22.5237C22.2027 10.1417 22.0422 10.1954 21.8282 10.3565C21.6677 10.5176 21.5607 10.8398 21.5607 11.2157C21.5607 11.6453 21.6142 11.9137 21.8282 12.1285C21.9887 12.2896 22.2027 12.3433 22.4702 12.3433H22.8447L24.0753 9.38994H25.4128L26.9109 12.9877V9.38994H28.2484L29.7999 12.0211V9.38994H30.7095V13.0951H30.8165Z" fill="#0571C1"/>
<path id="Vector_5" d="M24.1288 11.4855H25.3593L24.7708 9.98193L24.1288 11.4855Z" fill="#228FE0"/>
<path id="Vector_6" d="M15.0335 19.2166V16.1558L13.6424 17.6594L15.0335 19.2166Z" fill="#228FE0"/>
<path id="Vector_7" d="M9.30844 16.5317V17.2298H11.288V17.9816H9.30844V18.787H11.502L12.5185 17.6594L11.5555 16.5317H9.30844Z" fill="#2FABF7"/>
<path id="Vector_8" d="M17.0667 16.5322H15.9432V17.4988H17.1202C17.4413 17.4988 17.6553 17.3377 17.6553 17.0155C17.6018 16.6933 17.3878 16.5322 17.0667 16.5322Z" fill="#228FE0"/>
<path id="Vector_9" d="M33.5974 17.4452V15.0288H32.9553H31.3503C30.8688 15.0288 30.4943 15.1362 30.2268 15.351V15.0288H27.7657C27.3912 15.0288 26.9097 15.1362 26.6956 15.351V15.0288H22.362V15.351C22.041 15.0825 21.4525 15.0288 21.185 15.0288H18.2959V15.351C18.0284 15.0825 17.3864 15.0288 17.0653 15.0288H13.8552L13.1062 15.8343L12.4107 15.0288H7.59555V20.2912H12.3037L13.0527 19.4857L13.7482 20.2912H16.6373V19.0562H17.0118C17.3864 19.0562 17.8679 19.0562 18.2424 18.8951V20.3449H20.65V18.9488H20.757C20.9175 18.9488 20.9175 18.9488 20.9175 19.1099V20.3449H28.1937C28.6752 20.3449 29.1567 20.2375 29.4242 20.0227V20.3449H31.7248C32.2063 20.3449 32.6878 20.2912 33.0088 20.0764C33.5439 19.7542 33.8649 19.1636 33.8649 18.4655C33.8649 18.0896 33.7579 17.7137 33.5974 17.4452ZM17.0118 18.3044H15.9418V19.5931H14.2298L13.1597 18.3581L12.0362 19.5931H8.50508V15.7806H12.0897L13.1597 17.0156L14.2833 15.7806H17.1188C17.8144 15.7806 18.6169 15.9954 18.6169 17.0156C18.5634 18.0896 17.8144 18.3044 17.0118 18.3044ZM22.362 18.0896C22.469 18.2507 22.5225 18.4655 22.5225 18.7877V19.5394H21.613V19.0562C21.613 18.8414 21.613 18.4655 21.4525 18.3044C21.3455 18.1433 21.1315 18.1433 20.8105 18.1433H19.8474V19.5394H18.9379V15.7269H20.971C21.399 15.7269 21.7735 15.7269 22.041 15.888C22.3085 16.0491 22.5225 16.3175 22.5225 16.7471C22.5225 17.3378 22.148 17.66 21.8805 17.7674C22.148 17.8748 22.3085 17.9822 22.362 18.0896ZM26.0536 16.5323H23.9671V17.2304H26.0001V17.9822H23.9671V18.734H26.0536V19.5394H23.0575V15.7269H26.0536V16.5323ZM28.3007 19.5394H26.5886V18.734H28.3007C28.4612 18.734 28.5682 18.734 28.6752 18.6266C28.7287 18.5729 28.7822 18.4655 28.7822 18.3581C28.7822 18.2507 28.7287 18.1433 28.6752 18.0896C28.6217 18.0359 28.5147 17.9822 28.3542 17.9822C27.4982 17.9285 26.4816 17.9822 26.4816 16.8008C26.4816 16.2638 26.8026 15.6732 27.7657 15.6732H29.5312V16.586H27.8727C27.7122 16.586 27.6052 16.586 27.4982 16.6397C27.3912 16.6934 27.3912 16.8008 27.3912 16.9082C27.3912 17.0693 27.4982 17.123 27.6052 17.1767C27.7122 17.2304 27.8192 17.2304 27.9262 17.2304H28.4077C28.8892 17.2304 29.2102 17.3378 29.4242 17.5526C29.5847 17.7137 29.6917 17.9822 29.6917 18.3581C29.6917 19.1636 29.2102 19.5394 28.3007 19.5394ZM32.9018 19.1636C32.6878 19.3783 32.3133 19.5394 31.7783 19.5394H30.0663V18.734H31.7783C31.9388 18.734 32.0458 18.734 32.1528 18.6266C32.2063 18.5729 32.2598 18.4655 32.2598 18.3581C32.2598 18.2507 32.2063 18.1433 32.1528 18.0896C32.0993 18.0359 31.9923 17.9822 31.8318 17.9822C30.9758 17.9285 29.9593 17.9822 29.9593 16.8008C29.9593 16.2638 30.2803 15.6732 31.2433 15.6732H33.0088V16.586H31.4038C31.2433 16.586 31.1363 16.586 31.0293 16.6397C30.9223 16.6934 30.9223 16.8008 30.9223 16.9082C30.9223 17.0693 30.9758 17.123 31.1363 17.1767C31.2433 17.2304 31.3503 17.2304 31.4573 17.2304H31.9388C32.4203 17.2304 32.7413 17.3378 32.9553 17.5526C33.0088 17.5526 33.0088 17.6063 33.0088 17.6063C33.1694 17.8211 33.2229 18.0896 33.2229 18.3581C33.2229 18.6803 33.1159 18.9488 32.9018 19.1636Z" fill="#0571C1"/>
<path id="Vector_10" d="M21.4002 16.6396C21.2932 16.5859 21.1327 16.5859 20.9722 16.5859H19.9022V17.4451H20.9722C21.1327 17.4451 21.2932 17.4451 21.4002 17.3914C21.5072 17.3377 21.5607 17.1766 21.5607 17.0155C21.6142 16.8007 21.5072 16.6933 21.4002 16.6396Z" fill="#228FE0"/>
<path id="Vector_11" d="M17.6542 10.1963C17.5471 10.1426 17.3866 10.1426 17.2261 10.1426H16.1561V11.0017H17.2261C17.3866 11.0017 17.5471 11.0017 17.6542 10.948C17.7612 10.8943 17.8147 10.7332 17.8147 10.5721C17.8682 10.3573 17.7612 10.25 17.6542 10.1963Z" fill="#228FE0"/>
<path id="Vector_12" d="M24.1288 11.4855H25.3593L24.7708 9.98193L24.1288 11.4855Z" fill="#228FE0"/>
<path id="Vector_13" d="M15.0335 19.2166V16.1558L13.6424 17.6594L15.0335 19.2166Z" fill="#228FE0"/>
<path id="Vector_14" d="M17.0667 16.5322H15.9432V17.4988H17.1202C17.4413 17.4988 17.6553 17.3377 17.6553 17.0155C17.6018 16.6933 17.3878 16.5322 17.0667 16.5322Z" fill="#228FE0"/>
<path id="Vector_15" d="M21.4002 16.6396C21.2932 16.5859 21.1327 16.5859 20.9722 16.5859H19.9022V17.4451H20.9722C21.1327 17.4451 21.2932 17.4451 21.4002 17.3914C21.5072 17.3377 21.5607 17.1766 21.5607 17.0155C21.6142 16.8007 21.5072 16.6933 21.4002 16.6396Z" fill="#228FE0"/>
<path id="Vector_16" d="M16.6908 19.432L15.9418 18.6266V19.5394H14.1763L13.1062 18.3044L11.9292 19.5394H8.39807V15.7806H11.9827L13.1062 17.0156L13.6412 16.3712L12.3037 15.0288H7.59555V20.2912H12.3037L13.1062 19.4857L13.8017 20.2912H16.6908V19.432Z" fill="#2FABF7"/>
<path id="Vector_17" d="M11.1278 13.8469L10.4323 13.0951H10.1113V12.7729L9.30879 11.9674L8.77377 13.0951H8.02475L6.74071 10.1417V13.0951H4.92165L4.54714 12.2896H2.72808L2.35357 13.0951H1.39054L2.99559 9.33625H4.33313L5.83118 12.934V9.33625H6.6337L5.88468 8.58447H5.08216V9.22885L4.81465 8.58447H2.46057L1.39054 11.1083L0.160004 13.8469H1.39054H2.94209L3.2631 13.0414H4.01212L4.38663 13.8469H7.38273V13.2025L7.65024 13.8469H9.20179L9.46929 13.2025V13.8469H11.1278Z" fill="#2FABF7"/>
<path id="Vector_18" d="M8.66447 11.3758L7.80844 10.5166L8.45046 11.9127L8.66447 11.3758Z" fill="#2FABF7"/>
<path id="Vector_19" d="M33.0107 20.0222C33.4922 19.7 33.8132 19.163 33.8667 18.5723L33.1177 17.8206C33.1712 17.9817 33.2247 18.1428 33.2247 18.3576C33.2247 18.6797 33.1177 18.9482 32.9037 19.163C32.6897 19.3778 32.3152 19.5389 31.7802 19.5389H30.0681V18.7334H31.7802C31.9407 18.7334 32.0477 18.7334 32.1547 18.626C32.2082 18.5723 32.2617 18.4649 32.2617 18.3576C32.2617 18.2502 32.2082 18.1428 32.1547 18.0891C32.1012 18.0354 31.9942 17.9817 31.8337 17.9817C30.9776 17.928 29.9611 17.9817 29.9611 16.8003C29.9611 16.2633 30.2821 15.78 31.0846 15.6726L30.4961 15.082C30.3891 15.1357 30.3356 15.1894 30.2821 15.1894V14.8672H27.821C27.4465 14.8672 26.965 14.9746 26.751 15.1894V14.8672H22.3639V15.1894C22.0429 14.9209 21.4543 14.8672 21.1868 14.8672H18.2978V15.1894C18.0302 14.9209 17.3882 14.8672 17.0672 14.8672H13.8571L13.1081 15.6726L12.4126 14.8672H11.8241L13.4291 16.4781L14.2316 15.6189H17.0672C17.7627 15.6189 18.5653 15.8337 18.5653 16.854C18.5653 17.928 17.8162 18.1428 17.0137 18.1428H15.9437V18.9482L16.7462 19.7537V18.9482H17.0137C17.3882 18.9482 17.8697 18.9482 18.2443 18.7871V20.237H20.6518V18.8408H20.7588C20.9193 18.8408 20.9193 18.8408 20.9193 19.0019V20.237H28.1956C28.6771 20.237 29.1586 20.1296 29.4261 19.9148V20.237H31.7267C32.1547 20.2907 32.6362 20.237 33.0107 20.0222ZM22.3639 18.0891C22.4709 18.2502 22.5244 18.4649 22.5244 18.7871V19.5389H21.6149V19.0556C21.6149 18.8408 21.6149 18.4649 21.4543 18.3039C21.3473 18.1428 21.1333 18.1428 20.8123 18.1428H19.8493V19.5389H18.9398V15.7263H20.9728C21.4008 15.7263 21.7754 15.7263 22.0429 15.8874C22.3104 16.0485 22.5244 16.317 22.5244 16.7466C22.5244 17.3373 22.1499 17.6595 21.8824 17.7669C22.1499 17.8743 22.3104 17.9817 22.3639 18.0891ZM26.0555 16.5318H23.9689V17.2299H26.002V17.9817H23.9689V18.7334H26.0555V19.5389H23.0594V15.7263H26.0555V16.5318ZM28.3026 19.5389H26.5905V18.7334H28.3026C28.4631 18.7334 28.5701 18.7334 28.6771 18.626C28.7306 18.5723 28.7841 18.4649 28.7841 18.3576C28.7841 18.2502 28.7306 18.1428 28.6771 18.0891C28.6236 18.0354 28.5166 17.9817 28.3561 17.9817C27.5 17.928 26.4835 17.9817 26.4835 16.8003C26.4835 16.2633 26.8045 15.6726 27.7675 15.6726H29.5331V16.5855H27.8745C27.714 16.5855 27.607 16.5855 27.5 16.6392C27.393 16.6929 27.393 16.8003 27.393 16.9077C27.393 17.0688 27.5 17.1225 27.607 17.1762C27.714 17.2299 27.821 17.2299 27.928 17.2299H28.4096C28.8911 17.2299 29.2121 17.3373 29.4261 17.5521C29.5866 17.7132 29.6936 17.9817 29.6936 18.3576C29.6936 19.163 29.2121 19.5389 28.3026 19.5389Z" fill="#228FE0"/>
<path id="Vector_20" d="M30.8709 16.9081C30.8709 17.0692 30.9244 17.1229 31.0849 17.1766C31.1919 17.2303 31.299 17.2303 31.406 17.2303H31.8875C32.2085 17.2303 32.4225 17.284 32.6365 17.3914L31.834 16.5859H31.3525C31.1919 16.5859 31.0849 16.5859 30.9779 16.6396C30.9244 16.6933 30.8709 16.8007 30.8709 16.9081Z" fill="#228FE0"/>
<path id="Vector_21" d="M28.9998 13.688L29.1065 13.8491H29.1598L28.9998 13.688Z" fill="#228FE0"/>
<path id="Vector_22" d="M26.0565 10.7344L26.966 12.936V11.6472L26.0565 10.7344Z" fill="#228FE0"/>
<path id="Vector_23" d="M16.9062 12.5059H17.0132C17.1202 12.5059 17.1202 12.5059 17.1202 12.667V13.8484H20.9724V13.5262C21.2934 13.6873 21.7749 13.8484 22.4169 13.8484H24.022L24.343 12.9892H25.092L25.413 13.8484H28.5161V13.3114L27.7671 12.5596V13.1503H25.948L25.6805 12.2911H23.808L23.4869 13.1503H22.4704C22.0424 13.1503 21.5074 13.0429 21.1864 12.7207C20.8654 12.3985 20.7049 11.9689 20.7049 11.2708C20.7049 10.7339 20.8119 10.1969 21.1864 9.76731C21.4539 9.44512 21.9354 9.33772 22.5239 9.33772H23.3799V10.1432H22.5239C22.2029 10.1432 22.0424 10.1969 21.8284 10.358C21.6679 10.5191 21.5609 10.8413 21.5609 11.2171C21.5609 11.6467 21.6144 11.9152 21.8284 12.13C21.9889 12.2911 22.2029 12.3448 22.4704 12.3448H22.8449L24.0755 9.39142H24.6105L23.8615 8.63965H22.4704C21.8819 8.63965 21.4004 8.74704 20.9724 8.96184V8.63965H18.6183V8.96184C18.3508 8.74704 18.0298 8.63965 17.6018 8.63965H8.98799L8.39947 9.9821L7.81095 8.63965H5.45688L6.2059 9.39142H7.27593L8.18546 11.3782L8.50647 11.7004L9.4695 9.33772H10.9675V13.1503H10.058V10.1969L9.14849 12.3448L10.7 13.9021H16.8527L16.9062 12.5059ZM19.3673 9.33772H20.2768V13.1503H19.3673V9.33772ZM14.6592 10.1432H12.5726V10.8413H14.6057V11.593H12.5726V12.3448H14.6592V13.1503H11.6631V9.33772H14.6592V10.1432ZM16.1572 13.0966H15.2477V9.28403H17.2807C17.7623 9.28403 18.0833 9.28403 18.3508 9.44512C18.6183 9.60622 18.7788 9.87471 18.7788 10.3043C18.7788 10.895 18.4043 11.2171 18.1368 11.3245C18.3508 11.3782 18.5113 11.5393 18.5648 11.6467C18.6718 11.8615 18.7253 12.0226 18.7253 12.3448V13.0966H17.8158V12.6133C17.8158 12.3985 17.8158 12.0763 17.6553 11.8615C17.6018 11.7541 17.4413 11.7541 17.1202 11.7541H16.1572V13.0966Z" fill="#228FE0"/>
</g>
</g>
</g>
</g>
<defs>
<clipPath id="clip0_1_988">
<rect width="34" height="28" fill="white" transform="translate(0.160004 0.0449219)"/>
</clipPath>
</defs>
</svg>
