<svg width="140" height="42" viewBox="0 0 140 42" fill="none" xmlns="http://www.w3.org/2000/svg">
<g id="appstore-btn.svg" clip-path="url(#clip0_1_773)">
<g id="Clip path group">
<mask id="mask0_1_773" style="mask-type:luminance" maskUnits="userSpaceOnUse" x="0" y="0" width="140" height="42">
<g id="clip0_2490_5158">
<path id="Vector" d="M139.776 0.0297852H0.0170898V41.4398H139.776V0.0297852Z" fill="white"/>
</g>
</mask>
<g mask="url(#mask0_1_773)">
<g id="Group">
<path id="Vector_2" d="M138.794 36.5564C138.794 38.7456 137.025 40.5307 134.819 40.5307H4.89723C2.708 40.5307 0.922943 38.7625 0.922943 36.5564V4.93058C0.922943 2.74136 2.708 0.956299 4.89723 0.956299H134.819C137.009 0.956299 138.794 2.74136 138.794 4.93058V36.5564Z" fill="white"/>
<path id="Vector_3" d="M134.84 41.4398H4.91759C2.22316 41.4398 0.0170898 39.2505 0.0170898 36.5561V4.93028C0.0170898 2.23585 2.20632 0.0297852 4.91759 0.0297852H134.84C137.534 0.0297852 139.74 2.21901 139.74 4.93028V36.5561C139.724 39.2505 137.534 41.4398 134.84 41.4398Z" fill="black"/>
<path id="Vector_4" d="M138.794 36.5564C138.794 38.7456 137.025 40.5307 134.819 40.5307H4.89723C2.708 40.5307 0.922943 38.7625 0.922943 36.5564V4.93058C0.922943 2.74136 2.708 0.956299 4.89723 0.956299H134.819C137.009 0.956299 138.794 2.74136 138.794 4.93058V36.5564Z" fill="black"/>
<path id="Vector_5" d="M31.2073 20.5247C31.1737 17.1903 33.9355 15.5568 34.0702 15.4895C32.5041 13.2161 30.0791 12.8961 29.2202 12.8792C27.1826 12.6603 25.2123 14.0917 24.1682 14.0917C23.1073 14.0917 21.5075 12.8961 19.7898 12.9298C17.5669 12.9635 15.4956 14.2434 14.3672 16.2473C12.0264 20.3058 13.7779 26.2841 16.0175 29.5679C17.1459 31.1845 18.4593 32.9696 20.1771 32.9022C21.8611 32.8349 22.4842 31.8245 24.5218 31.8245C26.5259 31.8245 27.132 32.9022 28.8835 32.8517C30.6853 32.818 31.8305 31.235 32.9082 29.6184C34.2049 27.7828 34.727 25.964 34.7438 25.8631C34.7101 25.8462 31.2411 24.5159 31.2073 20.5247Z" fill="white"/>
<path id="Vector_6" d="M27.8904 10.7064C28.7997 9.57812 29.4227 8.02876 29.2376 6.47949C27.924 6.53001 26.2906 7.38886 25.3475 8.5003C24.5055 9.477 23.7646 11.0768 23.9666 12.5756C25.4485 12.6767 26.9472 11.8178 27.8904 10.7064Z" fill="white"/>
<path id="Vector_7" d="M55.5878 32.6496H53.2302L51.9503 28.6079H47.454L46.2246 32.6496H43.9343L48.3633 18.8743H51.1082L55.5878 32.6496ZM51.5461 26.907L50.3842 23.3032C50.2663 22.9328 50.0305 22.0739 49.6938 20.7099H49.66C49.5253 21.2993 49.3064 22.1581 49.0032 23.3032L47.8581 26.907H51.5461Z" fill="white"/>
<path id="Vector_8" d="M66.9736 27.5636C66.9736 29.2476 66.5188 30.5948 65.5926 31.5715C64.7675 32.4473 63.7402 32.885 62.5277 32.885C61.2142 32.885 60.2712 32.4135 59.6986 31.4705V36.691H57.4926V25.9974C57.4926 24.9365 57.4589 23.8418 57.4084 22.7304H59.3449L59.4628 24.3134H59.4965C60.2375 23.1346 61.3489 22.5283 62.8477 22.5283C64.0266 22.5283 65.0032 22.983 65.7779 23.9261C66.5694 24.8354 66.9736 26.0479 66.9736 27.5636ZM64.717 27.6478C64.717 26.6878 64.498 25.8795 64.0602 25.2564C63.5887 24.5996 62.9488 24.2797 62.1404 24.2797C61.6015 24.2797 61.0963 24.4649 60.6585 24.8186C60.2207 25.1891 59.9175 25.6607 59.7827 26.2332C59.7155 26.5026 59.6818 26.7216 59.6818 26.9068V28.5571C59.6818 29.2813 59.9007 29.8875 60.3385 30.3927C60.7764 30.8979 61.3657 31.1336 62.073 31.1336C62.8982 31.1336 63.555 30.8136 64.0097 30.1738C64.4812 29.5339 64.717 28.6919 64.717 27.6478Z" fill="white"/>
<path id="Vector_9" d="M78.3938 27.5636C78.3938 29.2476 77.939 30.5948 77.0133 31.5715C76.188 32.4473 75.1609 32.885 73.9483 32.885C72.6347 32.885 71.6917 32.4135 71.1191 31.4705V36.691H68.9131V25.9974C68.9131 24.9365 68.8794 23.8418 68.8288 22.7304H70.7655L70.8833 24.3134H70.9171C71.658 23.1346 72.7695 22.5283 74.2684 22.5283C75.4471 22.5283 76.4239 22.983 77.1981 23.9261C78.0071 24.8354 78.3938 26.0479 78.3938 27.5636ZM76.154 27.6478C76.154 26.6878 75.9351 25.8795 75.4973 25.2564C75.0263 24.5996 74.386 24.2797 73.5778 24.2797C73.0389 24.2797 72.5337 24.4649 72.0959 24.8186C71.658 25.1891 71.3717 25.6607 71.2202 26.2332C71.1528 26.5026 71.1191 26.7216 71.1191 26.9068V28.5571C71.1191 29.2813 71.3381 29.8875 71.7759 30.3927C72.2138 30.8811 72.8032 31.1336 73.5105 31.1336C74.3356 31.1336 74.9923 30.8136 75.4471 30.1738C75.9188 29.5339 76.154 28.6919 76.154 27.6478Z" fill="white"/>
<path id="Vector_10" d="M91.1729 28.7928C91.1729 29.9716 90.7696 30.9146 89.9439 31.6556C89.0519 32.464 87.7889 32.8682 86.1888 32.8682C84.7063 32.8682 83.5113 32.5818 82.6183 32.0093L83.1245 30.1737C84.0835 30.7463 85.161 31.0325 86.3064 31.0325C87.1321 31.0325 87.7889 30.8473 88.2436 30.4768C88.6983 30.1063 88.9343 29.6011 88.9343 28.9781C88.9343 28.4223 88.7488 27.9508 88.3612 27.5635C87.9736 27.1761 87.3508 26.8225 86.458 26.5026C84.0496 25.61 82.8379 24.2797 82.8379 22.5619C82.8379 21.4337 83.2586 20.5074 84.1175 19.7833C84.9763 19.0592 86.1052 18.7056 87.5023 18.7056C88.7488 18.7056 89.8097 18.9245 90.6346 19.3623L90.0789 21.1642C89.3045 20.7432 88.4117 20.5243 87.4353 20.5243C86.6601 20.5243 86.0373 20.7095 85.6157 21.0968C85.2455 21.4337 85.0608 21.8546 85.0608 22.343C85.0608 22.8819 85.2795 23.3366 85.7002 23.6903C86.0712 24.0102 86.7271 24.3638 87.7044 24.7511C88.883 25.2227 89.7584 25.7784 90.3149 26.4183C90.9038 27.0414 91.1729 27.8329 91.1729 28.7928Z" fill="white"/>
<path id="Vector_11" d="M98.4917 24.3807H96.0494V29.197C96.0494 30.4263 96.4701 31.0326 97.3298 31.0326C97.7165 31.0326 98.0536 30.999 98.3062 30.9315L98.3741 32.6155C97.9352 32.7839 97.3629 32.8681 96.6564 32.8681C95.7802 32.8681 95.1069 32.5987 94.6182 32.0767C94.1304 31.5378 93.877 30.6452 93.877 29.3991V24.3807H92.4293V22.7304H93.877V20.9116L96.0494 20.2549V22.7304H98.4917C98.4917 22.7136 98.4917 24.3807 98.4917 24.3807Z" fill="white"/>
<path id="Vector_12" d="M109.458 27.614C109.458 29.1465 109.02 30.3927 108.144 31.3694C107.235 32.3798 106.023 32.885 104.507 32.885C103.042 32.885 101.88 32.3967 101.021 31.4369C100.162 30.4769 99.7241 29.2476 99.7241 27.7824C99.7241 26.25 100.179 24.987 101.072 23.9934C101.964 23.0167 103.177 22.5283 104.676 22.5283C106.14 22.5283 107.302 23.0167 108.195 23.9766C109.02 24.9029 109.458 26.1153 109.458 27.614ZM107.168 27.6646C107.168 26.7552 106.966 25.9806 106.578 25.3238C106.124 24.5323 105.45 24.145 104.591 24.145C103.699 24.145 103.025 24.5323 102.571 25.3238C102.183 25.9806 101.981 26.772 101.981 27.7151C101.981 28.6245 102.183 29.416 102.571 30.0558C103.042 30.8474 103.716 31.2347 104.574 31.2347C105.416 31.2347 106.073 30.8305 106.561 30.0391C106.948 29.3486 107.168 28.574 107.168 27.6646Z" fill="white"/>
<path id="Vector_13" d="M116.636 24.6673C116.416 24.6336 116.181 24.5999 115.945 24.5999C115.171 24.5999 114.565 24.8863 114.144 25.4757C113.774 25.9976 113.587 26.6545 113.587 27.446V32.6664H111.382V25.8629C111.382 24.7179 111.364 23.6737 111.315 22.7307H113.235L113.318 24.6336H113.386C113.621 23.9768 113.992 23.4549 114.498 23.0506C114.985 22.697 115.525 22.5117 116.097 22.5117C116.3 22.5117 116.484 22.5286 116.653 22.5454L116.636 24.6673Z" fill="white"/>
<path id="Vector_14" d="M126.504 27.2101C126.504 27.5974 126.47 27.9343 126.419 28.2036H119.801C119.818 29.1804 120.155 29.9382 120.761 30.4603C121.317 30.915 122.041 31.1507 122.934 31.1507C123.911 31.1507 124.803 30.9991 125.611 30.6791L125.965 32.2116C125.021 32.6157 123.911 32.8179 122.63 32.8179C121.098 32.8179 119.886 32.3631 118.993 31.4538C118.118 30.5444 117.679 29.3319 117.679 27.7995C117.679 26.3007 118.084 25.0545 118.909 24.061C119.767 23 120.929 22.4612 122.378 22.4612C123.809 22.4612 124.887 23 125.629 24.061C126.217 24.9367 126.504 25.9807 126.504 27.2101ZM124.399 26.6375C124.415 25.9807 124.264 25.425 123.978 24.9367C123.59 24.3136 123.001 24.0104 122.226 24.0104C121.502 24.0104 120.913 24.3136 120.475 24.903C120.104 25.3745 119.886 25.9471 119.818 26.6207L124.399 26.6375Z" fill="white"/>
<path id="Vector_15" d="M50.4856 13.9399H49.3236L48.6837 11.9528H46.4776L45.8714 13.9399H44.7431L46.9155 7.17017H48.2626L50.4856 13.9399ZM48.5152 11.1276L47.9427 9.35936C47.8754 9.17418 47.7743 8.7532 47.6059 8.07952H47.589C47.5217 8.36585 47.4207 8.78683 47.2691 9.35936L46.7134 11.1276H48.5152Z" fill="white"/>
<path id="Vector_16" d="M55.9442 9.05591L54.0918 13.9396H53.0308L51.2458 9.05591H52.4078L53.2498 11.6325C53.3846 12.0704 53.5024 12.4746 53.6035 12.8619H53.6372C53.7213 12.5082 53.8392 12.104 53.9907 11.6325L54.8159 9.05591C54.7991 9.05591 55.9442 9.05591 55.9442 9.05591Z" fill="white"/>
<path id="Vector_17" d="M59.8826 13.9397L59.7985 13.384H59.7647C59.4279 13.8388 58.9564 14.0577 58.3333 14.0577C57.4576 14.0577 56.8345 13.4514 56.8345 12.6262C56.8345 11.4137 57.8786 10.7907 59.6805 10.7907V10.7065C59.6805 10.0665 59.3437 9.74657 58.6701 9.74657C58.1817 9.74657 57.7608 9.86451 57.3903 10.1171L57.1713 9.40983C57.626 9.12352 58.1817 8.98877 58.8554 8.98877C60.1352 8.98877 60.7751 9.66243 60.7751 11.0097V12.8115C60.7751 13.2998 60.792 13.6871 60.8425 13.9735L59.8826 13.9397ZM59.731 11.5149C58.5186 11.5149 57.9291 11.8011 57.9291 12.4916C57.9291 12.9968 58.2491 13.2494 58.6701 13.2494C59.2258 13.2494 59.731 12.8284 59.731 12.2558C59.731 12.2727 59.731 11.5149 59.731 11.5149Z" fill="white"/>
<path id="Vector_18" d="M63.2007 8.24761C62.847 8.24761 62.5608 7.96137 62.5608 7.59089C62.5608 7.22037 62.847 6.95093 63.2174 6.95093C63.5879 6.95093 63.8911 7.22037 63.8743 7.59089C63.8911 7.99501 63.6048 8.24761 63.2007 8.24761ZM63.7563 13.9397H62.6786V9.05594H63.7563V13.9397Z" fill="white"/>
<path id="Vector_19" d="M66.7685 13.9398H65.6908V6.81641H66.7685V13.9398Z" fill="white"/>
<path id="Vector_20" d="M71.3836 13.9397L71.2993 13.384H71.2657C70.9289 13.8388 70.4573 14.0577 69.8342 14.0577C68.9586 14.0577 68.3354 13.4514 68.3354 12.6262C68.3354 11.4137 69.3796 10.7907 71.1815 10.7907V10.7065C71.1815 10.0665 70.8446 9.74657 70.1711 9.74657C69.6827 9.74657 69.2616 9.86451 68.8912 10.1171L68.6723 9.40983C69.127 9.12352 69.6827 8.98877 70.3563 8.98877C71.6362 8.98877 72.2761 9.66243 72.2761 11.0097V12.8115C72.2761 13.2998 72.2929 13.6871 72.3434 13.9735H71.3836V13.9397ZM71.2319 11.5149C70.0194 11.5149 69.4301 11.8011 69.4301 12.4916C69.4301 12.9968 69.7501 13.2494 70.1711 13.2494C70.7268 13.2494 71.2319 12.8284 71.2319 12.2558V11.5149Z" fill="white"/>
<path id="Vector_21" d="M76.6856 14.0577C75.995 14.0577 75.4729 13.7715 75.1535 13.1988H75.1365L75.0691 13.9567H74.1426C74.1766 13.5694 74.1766 13.1146 74.1766 12.6431V6.83325H75.2711V9.78029H75.288C75.6075 9.24138 76.1296 8.97196 76.8372 8.97196C78.0159 8.97196 78.8412 9.98237 78.8412 11.4475C78.8412 12.9462 77.9317 14.0577 76.6856 14.0577ZM76.4667 9.81399C75.8433 9.81399 75.2711 10.3528 75.2711 11.1106V11.9695C75.2711 12.6431 75.7761 13.1988 76.4498 13.1988C77.258 13.1988 77.7467 12.5421 77.7467 11.4812C77.7467 10.4876 77.2417 9.81399 76.4667 9.81399Z" fill="white"/>
<path id="Vector_22" d="M81.537 13.9398H80.4588V6.81641H81.537V13.9398Z" fill="white"/>
<path id="Vector_23" d="M87.4551 11.7672H84.2045C84.221 12.6933 84.8446 13.2153 85.7374 13.2153C86.2253 13.2153 86.6634 13.1311 87.051 12.9796L87.2191 13.7374C86.7644 13.9395 86.2087 14.0406 85.5859 14.0406C84.0529 14.0406 83.1609 13.0807 83.1609 11.5819C83.1609 10.0831 84.0868 8.95483 85.4675 8.95483C86.7139 8.95483 87.5057 9.88109 87.5057 11.2788C87.4883 11.464 87.4883 11.6324 87.4551 11.7672ZM86.4613 10.9925C86.4613 10.2347 86.0737 9.71264 85.3838 9.71264C84.7602 9.71264 84.2724 10.2515 84.2045 10.9925H86.4613Z" fill="white"/>
<path id="Vector_24" d="M94.0352 14.0579C92.6032 14.0579 91.6765 12.9969 91.6765 11.5486C91.6765 10.033 92.6206 8.97217 94.1188 8.97217C95.5168 8.97217 96.4767 9.98257 96.4767 11.4813C96.4593 12.9969 95.4829 14.0579 94.0352 14.0579ZM94.0683 9.74678C93.2765 9.74678 92.7887 10.4878 92.7887 11.4982C92.7887 12.5086 93.2939 13.2327 94.0683 13.2327C94.8435 13.2327 95.3479 12.4412 95.3479 11.4813C95.3313 10.5046 94.8261 9.74678 94.0683 9.74678Z" fill="white"/>
<path id="Vector_25" d="M102.287 13.9395H101.209V11.1272C101.209 10.2684 100.872 9.83049 100.233 9.83049C99.5916 9.83049 99.1369 10.3863 99.1369 11.0262V13.9395H98.0594V10.4536C98.0594 10.0158 98.0428 9.56108 98.0255 9.05587H98.9853L99.0367 9.81368H99.0698C99.3564 9.29166 99.9626 8.95483 100.62 8.95483C101.647 8.95483 102.321 9.74635 102.321 11.0094L102.287 13.9395Z" fill="white"/>
<path id="Vector_26" d="M109.393 9.88115H108.197V12.2556C108.197 12.8618 108.399 13.165 108.838 13.165C109.022 13.165 109.191 13.1482 109.325 13.1144L109.359 13.9397C109.141 14.0239 108.871 14.0575 108.517 14.0575C107.659 14.0575 107.153 13.586 107.153 12.3566V9.89805H106.446V9.05601H107.153V8.16347L108.214 7.84351V9.05601H109.41V9.88115H109.393Z" fill="white"/>
<path id="Vector_27" d="M115.138 13.9398H114.043V11.1612C114.043 10.2855 113.707 9.84767 113.066 9.84767C112.511 9.84767 111.989 10.235 111.989 11.0096V13.9398H110.894V6.81641H111.989V9.74654H112.005C112.343 9.20772 112.847 8.95512 113.471 8.95512C114.498 8.95512 115.138 9.76344 115.138 11.0433V13.9398Z" fill="white"/>
<path id="Vector_28" d="M120.697 11.7672H117.429C117.446 12.6933 118.07 13.2153 118.962 13.2153C119.45 13.2153 119.887 13.1311 120.275 12.9796L120.444 13.7374C119.989 13.9395 119.434 14.0406 118.81 14.0406C117.278 14.0406 116.386 13.0807 116.386 11.5819C116.386 10.0831 117.312 8.95483 118.692 8.95483C119.939 8.95483 120.73 9.88109 120.73 11.2788C120.73 11.464 120.713 11.6324 120.697 11.7672ZM119.703 10.9925C119.703 10.2347 119.315 9.71264 118.624 9.71264C118.002 9.71264 117.513 10.2515 117.446 10.9925H119.703Z" fill="white"/>
</g>
</g>
</g>
</g>
<defs>
<clipPath id="clip0_1_773">
<rect width="139.966" height="41.41" fill="white" transform="translate(0.0170898 0.0297852)"/>
</clipPath>
</defs>
</svg>
