<svg width="141" height="41" viewBox="0 0 141 41" fill="none" xmlns="http://www.w3.org/2000/svg">
<g id="googleplay-btn.svg" clip-path="url(#clip0_1_806)">
<path id="Vector" d="M134.34 40.9597H6.45092C3.63489 40.9597 1.34036 38.6918 1.34036 35.9085V5.58136C1.34036 2.79811 3.63489 0.530273 6.45092 0.530273H134.34C137.157 0.530273 139.45 2.79811 139.45 5.58136V35.9085C139.45 38.6918 137.136 40.9597 134.34 40.9597Z" fill="black"/>
<path id="Vector_2" d="M134.34 1.31626C136.718 1.31626 138.637 3.213 138.637 5.5633V35.8905C138.637 38.2408 136.718 40.1376 134.34 40.1376H6.45092C4.07294 40.1376 2.15389 38.2408 2.15389 35.8905V5.5633C2.15389 3.213 4.07294 1.31626 6.45092 1.31626H134.34ZM134.34 0.512207H6.45092C3.6349 0.512207 1.34036 2.78004 1.34036 5.5633V35.8905C1.34036 38.6738 3.6349 40.9416 6.45092 40.9416H134.34C137.156 40.9416 139.45 38.6738 139.45 35.8905V5.5633C139.45 2.78004 137.136 0.512207 134.34 0.512207Z" fill="black"/>
<path id="Vector_3" d="M49.8422 10.88C49.8422 11.7253 49.5919 12.4057 49.0913 12.9005C48.5072 13.4983 47.7562 13.8076 46.8385 13.8076C45.9624 13.8076 45.1906 13.4983 44.5856 12.9005C43.9598 12.282 43.647 11.5398 43.647 10.6326C43.647 9.72554 43.9598 8.98328 44.5856 8.3854C45.2114 7.78753 45.9624 7.47827 46.8385 7.47827C47.2765 7.47827 47.6937 7.56073 48.09 7.72566C48.4863 7.8906 48.8201 8.11741 49.0496 8.40605L48.5072 8.9421C48.09 8.46788 47.5477 8.22049 46.8176 8.22049C46.1709 8.22049 45.6077 8.44722 45.1488 8.90084C44.669 9.35437 44.4397 9.93167 44.4397 10.6533C44.4397 11.3748 44.669 11.9521 45.1488 12.4057C45.6286 12.8592 46.1918 13.086 46.8176 13.086C47.5059 13.086 48.0692 12.8592 48.528 12.4057C48.8201 12.117 49.0078 11.7047 49.0496 11.1686H46.8176V10.4471H49.7796C49.8422 10.5708 49.8422 10.7151 49.8422 10.88Z" fill="white" stroke="white" stroke-width="0.161241" stroke-miterlimit="10"/>
<path id="Vector_4" d="M54.5593 8.34411H51.7641V10.2614H54.2881V10.9831H51.7641V12.9005H54.5593V13.6426H50.9714V7.5813H54.5593C54.5593 7.60191 54.5593 8.34411 54.5593 8.34411Z" fill="white" stroke="white" stroke-width="0.161241" stroke-miterlimit="10"/>
<path id="Vector_5" d="M57.8905 13.6634H57.0977V8.34427H55.3874V7.60205H59.601V8.34427H57.8905V13.6634Z" fill="white" stroke="white" stroke-width="0.161241" stroke-miterlimit="10"/>
<path id="Vector_6" d="M62.6474 13.6634V7.60205H63.44V13.6634H62.6474Z" fill="white" stroke="white" stroke-width="0.161241" stroke-miterlimit="10"/>
<path id="Vector_7" d="M66.9447 13.6634H66.1521V8.34427H64.4416V7.60205H68.6552V8.34427H66.9447V13.6634Z" fill="white" stroke="white" stroke-width="0.161241" stroke-miterlimit="10"/>
<path id="Vector_8" d="M76.6459 12.8795C76.0413 13.4979 75.2901 13.8072 74.393 13.8072C73.4959 13.8072 72.7452 13.4979 72.1403 12.8795C71.5355 12.261 71.2434 11.5188 71.2434 10.6323C71.2434 9.7457 71.5355 8.9829 72.1403 8.38506C72.7452 7.76654 73.4959 7.45728 74.393 7.45728C75.2901 7.45728 76.0413 7.76654 76.6459 8.38506C77.2512 9.00353 77.564 9.7457 77.564 10.6323C77.5431 11.5188 77.2512 12.261 76.6459 12.8795ZM72.7244 12.364C73.1831 12.8176 73.7256 13.0444 74.393 13.0444C75.0395 13.0444 75.6029 12.8176 76.0616 12.364C76.521 11.9105 76.7499 11.3332 76.7499 10.6117C76.7499 9.89003 76.521 9.31281 76.0616 8.8592C75.6029 8.40565 75.0604 8.17884 74.393 8.17884C73.7256 8.17884 73.1831 8.40565 72.7244 8.8592C72.2655 9.31281 72.0361 9.89003 72.0361 10.6117C72.0361 11.3332 72.2655 11.9105 72.7244 12.364Z" fill="white" stroke="white" stroke-width="0.161241" stroke-miterlimit="10"/>
<path id="Vector_9" d="M78.6453 13.6634V7.60205H79.6053L82.5881 12.3233H82.6293L82.5881 11.1481V7.60205H83.3809V13.6634H82.567L79.4384 8.7154H79.3966L79.4384 9.89055V13.6634H78.6453Z" fill="white" stroke="white" stroke-width="0.161241" stroke-miterlimit="10"/>
<path id="Vector_10" d="M71.0376 22.508C68.6389 22.508 66.678 24.3223 66.678 26.8169C66.678 29.2909 68.6389 31.1258 71.0376 31.1258C73.4366 31.1258 75.418 29.2909 75.418 26.8169C75.418 24.3223 73.4576 22.508 71.0376 22.508ZM71.0376 29.4146C69.7236 29.4146 68.5763 28.3425 68.5763 26.8169C68.5763 25.2707 69.7027 24.2192 71.0376 24.2192C72.3726 24.2192 73.4988 25.2707 73.4988 26.8169C73.4988 28.3425 72.3518 29.4146 71.0376 29.4146ZM61.5257 22.508C59.127 22.508 57.1661 24.3223 57.1661 26.8169C57.1661 29.2909 59.127 31.1258 61.5257 31.1258C63.9246 31.1258 65.8854 29.2909 65.8854 26.8169C65.8854 24.3223 63.9246 22.508 61.5257 22.508ZM61.5257 29.4146C60.2117 29.4146 59.0644 28.3425 59.0644 26.8169C59.0644 25.2707 60.2117 24.2192 61.5257 24.2192C62.8399 24.2192 63.9871 25.2707 63.9871 26.8169C63.9663 28.3425 62.8399 29.4146 61.5257 29.4146ZM50.1782 23.8275V25.6624H54.6005C54.4753 26.6933 54.1206 27.4355 53.5992 27.9508C52.9525 28.5899 51.9513 29.2909 50.1782 29.2909C47.4665 29.2909 45.3389 27.1261 45.3389 24.446C45.3389 21.7658 47.4665 19.601 50.1782 19.601C51.6384 19.601 52.7231 20.1783 53.5157 20.9L54.809 19.6217C53.7034 18.5702 52.2434 17.7869 50.1782 17.7869C46.4444 17.7869 43.3156 20.7762 43.3156 24.4666C43.3156 28.157 46.4444 31.1464 50.1782 31.1464C52.2016 31.1464 53.7034 30.4867 54.8925 29.2703C56.1023 28.0746 56.4986 26.3634 56.4986 25.0027C56.4986 24.5697 56.4569 24.178 56.3943 23.8688C56.3943 23.8275 50.1782 23.8275 50.1782 23.8275ZM96.5279 25.2501C96.1728 24.2811 95.0677 22.508 92.7944 22.508C90.5624 22.508 88.6847 24.2605 88.6847 26.8169C88.6847 29.2291 90.5203 31.1258 93.0031 31.1258C95.0054 31.1258 96.1526 29.93 96.6315 29.2291L95.151 28.2601C94.6502 28.9816 93.9828 29.4559 93.0031 29.4559C92.0428 29.4559 91.3333 29.0229 90.8957 28.157L96.7156 25.7861C96.7367 25.7243 96.5279 25.2501 96.5279 25.2501ZM90.6044 26.6726C90.5624 25.0233 91.8972 24.1574 92.8769 24.1574C93.6285 24.1574 94.2749 24.5285 94.5046 25.0645C94.4836 25.0852 90.6044 26.6726 90.6044 26.6726ZM85.8685 30.8578H87.7875V18.2198H85.8685V30.8578ZM82.7401 23.4564H82.677C82.2386 22.9616 81.4255 22.508 80.3825 22.508C78.2134 22.508 76.2111 24.4048 76.2111 26.8169C76.2111 29.2291 78.2134 31.1052 80.3825 31.1052C81.4255 31.1052 82.2386 30.6517 82.677 30.1362H82.7401V30.7547C82.7401 32.4041 81.843 33.2906 80.4244 33.2906C79.2563 33.2906 78.5261 32.4659 78.2343 31.765L76.5657 32.4453C77.0454 33.5793 78.3173 34.9812 80.4244 34.9812C82.677 34.9812 84.5547 33.6823 84.5547 30.5073V22.776H82.7401V23.4564ZM80.5494 29.4146C79.2354 29.4146 78.1296 28.322 78.1296 26.8169C78.1296 25.2913 79.2354 24.1986 80.5494 24.1986C81.843 24.1986 82.8647 25.3119 82.8647 26.8169C82.8647 28.322 81.843 29.4146 80.5494 29.4146ZM105.497 18.1991H100.929V30.8372H102.827V26.0541H105.497C107.625 26.0541 109.69 24.5285 109.69 22.1369C109.69 19.7248 107.604 18.1991 105.497 18.1991ZM105.539 24.3017H102.827V19.9722H105.539C106.958 19.9722 107.771 21.1474 107.771 22.1369C107.771 23.106 106.958 24.3017 105.539 24.3017ZM117.346 22.4874C115.969 22.4874 114.53 23.0852 113.945 24.4254L115.636 25.1264C115.99 24.4254 116.678 24.1986 117.387 24.1986C118.368 24.1986 119.39 24.7965 119.39 25.8274V25.9511C119.035 25.7448 118.305 25.4562 117.387 25.4562C115.573 25.4562 113.695 26.4458 113.695 28.3014C113.695 29.9919 115.197 31.0846 116.865 31.0846C118.159 31.0846 118.868 30.5073 119.306 29.8476H119.369V30.8165H121.205V25.9717C121.225 23.7451 119.536 22.4874 117.346 22.4874ZM117.116 29.4146C116.491 29.4146 115.615 29.1054 115.615 28.3425C115.615 27.3735 116.699 26.9819 117.638 26.9819C118.472 26.9819 118.868 27.1674 119.39 27.4148C119.223 28.5899 118.222 29.4146 117.116 29.4146ZM127.942 22.7555L125.752 28.2395H125.689L123.416 22.7555H121.35L124.751 30.4043L122.811 34.6719H124.813L130.07 22.7555H127.942ZM110.733 30.8578H112.652V18.2198H110.733V30.8578Z" fill="white"/>
<path id="Vector_11" d="M12.0038 8.1379C11.7117 8.44713 11.524 8.94196 11.524 9.56044V31.9296C11.524 32.548 11.6909 33.0429 12.0038 33.3522L12.0873 33.414L24.7698 20.879V20.5903L12.0873 8.05542L12.0038 8.1379Z" fill="url(#paint0_linear_1_806)"/>
<path id="Vector_12" d="M28.9869 25.0641L24.7733 20.8789V20.5903L29.0078 16.405L29.1121 16.4669L34.1183 19.2914C35.5368 20.0954 35.5368 21.4149 34.1183 22.219L29.1121 25.0229C29.0912 25.0022 28.9869 25.0641 28.9869 25.0641Z" fill="url(#paint1_linear_1_806)"/>
<path id="Vector_13" d="M29.0856 25.0026L24.7676 20.7349L12.0225 33.3317C12.5023 33.8265 13.2741 33.8883 14.1501 33.3935L29.0856 25.0026Z" fill="url(#paint2_linear_1_806)"/>
<path id="Vector_14" d="M29.0818 16.467L14.1257 8.07599C13.2495 7.5812 12.4778 7.64305 11.998 8.13782L24.7431 20.7347L29.0818 16.467Z" fill="url(#paint3_linear_1_806)"/>
</g>
<defs>
<linearGradient id="paint0_linear_1_806" x1="23.6325" y1="32.1535" x2="2.62232" y2="10.645" gradientUnits="userSpaceOnUse">
<stop stop-color="#00A0FF"/>
<stop offset="0.0066" stop-color="#00A1FF"/>
<stop offset="0.2601" stop-color="#00BEFF"/>
<stop offset="0.5122" stop-color="#00D2FF"/>
<stop offset="0.7604" stop-color="#00DFFF"/>
<stop offset="1" stop-color="#00E3FF"/>
</linearGradient>
<linearGradient id="paint1_linear_1_806" x1="35.9502" y1="20.7359" x2="4.93048" y2="20.7359" gradientUnits="userSpaceOnUse">
<stop stop-color="#FFE000"/>
<stop offset="0.4087" stop-color="#FFBD00"/>
<stop offset="0.7754" stop-color="#FFA500"/>
<stop offset="1" stop-color="#FF9C00"/>
</linearGradient>
<linearGradient id="paint2_linear_1_806" x1="18.1912" y1="26.8524" x2="-10.3004" y2="-2.31506" gradientUnits="userSpaceOnUse">
<stop stop-color="#FF3A44"/>
<stop offset="1" stop-color="#C31162"/>
</linearGradient>
<linearGradient id="paint3_linear_1_806" x1="0.254686" y1="32.3459" x2="12.9775" y2="19.3215" gradientUnits="userSpaceOnUse">
<stop stop-color="#32A071"/>
<stop offset="0.0685" stop-color="#2DA771"/>
<stop offset="0.4762" stop-color="#15CF74"/>
<stop offset="0.8009" stop-color="#06E775"/>
<stop offset="1" stop-color="#00F076"/>
</linearGradient>
<clipPath id="clip0_1_806">
<rect width="139.957" height="40.45" fill="white" transform="translate(0.741516 0.509766)"/>
</clipPath>
</defs>
</svg>
