<svg width="16" height="17" viewBox="0 0 16 17" fill="none" xmlns="http://www.w3.org/2000/svg">
<path id="Vector" d="M8 0.749756C5.829 0.749756 5.556 0.759756 4.703 0.797756C3.85 0.837756 3.269 0.971756 2.76 1.16976C2.22609 1.37057 1.74249 1.68558 1.343 2.09276C0.936076 2.49245 0.621107 2.976 0.42 3.50976C0.222 4.01776 0.087 4.59976 0.048 5.44976C0.01 6.30476 0 6.57676 0 8.75076C0 10.9228 0.01 11.1948 0.048 12.0478C0.088 12.8998 0.222 13.4808 0.42 13.9898C0.625 14.5158 0.898 14.9618 1.343 15.4068C1.787 15.8518 2.233 16.1258 2.759 16.3298C3.269 16.5278 3.849 16.6628 4.701 16.7018C5.555 16.7398 5.827 16.7498 8 16.7498C10.173 16.7498 10.444 16.7398 11.298 16.7018C12.149 16.6618 12.732 16.5278 13.241 16.3298C13.7746 16.1288 14.2578 15.8138 14.657 15.4068C15.102 14.9618 15.375 14.5158 15.58 13.9898C15.777 13.4808 15.912 12.8998 15.952 12.0478C15.99 11.1948 16 10.9228 16 8.74976C16 6.57676 15.99 6.30476 15.952 5.45076C15.912 4.59976 15.777 4.01776 15.58 3.50976C15.3789 2.97598 15.0639 2.49243 14.657 2.09276C14.2576 1.68543 13.774 1.3704 13.24 1.16976C12.73 0.971756 12.148 0.836756 11.297 0.797756C10.443 0.759756 10.172 0.749756 7.998 0.749756H8.001H8ZM7.283 2.19176H8.001C10.137 2.19176 10.39 2.19876 11.233 2.23776C12.013 2.27276 12.437 2.40376 12.719 2.51276C13.092 2.65776 13.359 2.83176 13.639 3.11176C13.919 3.39176 14.092 3.65776 14.237 4.03176C14.347 4.31276 14.477 4.73676 14.512 5.51676C14.551 6.35976 14.559 6.61276 14.559 8.74776C14.559 10.8828 14.551 11.1368 14.512 11.9798C14.477 12.7598 14.346 13.1828 14.237 13.4648C14.1087 13.8121 13.904 14.1262 13.638 14.3838C13.358 14.6638 13.092 14.8368 12.718 14.9818C12.438 15.0918 12.014 15.2218 11.233 15.2578C10.39 15.2958 10.137 15.3048 8.001 15.3048C5.865 15.3048 5.611 15.2958 4.768 15.2578C3.988 15.2218 3.565 15.0918 3.283 14.9818C2.9355 14.8537 2.62113 14.6493 2.363 14.3838C2.09675 14.1258 1.89172 13.8114 1.763 13.4638C1.654 13.1828 1.523 12.7588 1.488 11.9788C1.45 11.1358 1.442 10.8828 1.442 8.74576C1.442 6.60976 1.45 6.35776 1.488 5.51476C1.524 4.73476 1.654 4.31076 1.764 4.02876C1.909 3.65576 2.083 3.38876 2.363 3.10876C2.643 2.82876 2.909 2.65576 3.283 2.51076C3.565 2.40076 3.988 2.27076 4.768 2.23476C5.506 2.20076 5.792 2.19076 7.283 2.18976V2.19176ZM12.271 3.51976C12.1449 3.51976 12.0201 3.54459 11.9036 3.59283C11.7872 3.64108 11.6813 3.71179 11.5922 3.80093C11.503 3.89008 11.4323 3.99591 11.3841 4.11238C11.3358 4.22885 11.311 4.35369 11.311 4.47976C11.311 4.60582 11.3358 4.73066 11.3841 4.84713C11.4323 4.9636 11.503 5.06943 11.5922 5.15858C11.6813 5.24772 11.7872 5.31844 11.9036 5.36668C12.0201 5.41492 12.1449 5.43976 12.271 5.43976C12.5256 5.43976 12.7698 5.33861 12.9498 5.15858C13.1299 4.97854 13.231 4.73436 13.231 4.47976C13.231 4.22515 13.1299 3.98097 12.9498 3.80093C12.7698 3.6209 12.5256 3.51976 12.271 3.51976ZM8.001 4.64176C7.45607 4.63325 6.91489 4.73324 6.40898 4.9359C5.90306 5.13855 5.44251 5.43983 5.05415 5.82218C4.66579 6.20453 4.35736 6.66032 4.14684 7.16302C3.93632 7.66571 3.8279 8.20526 3.8279 8.75026C3.8279 9.29525 3.93632 9.8348 4.14684 10.3375C4.35736 10.8402 4.66579 11.296 5.05415 11.6783C5.44251 12.0607 5.90306 12.362 6.40898 12.5646C6.91489 12.7673 7.45607 12.8673 8.001 12.8588C9.07954 12.8419 10.1082 12.4017 10.865 11.633C11.6217 10.8643 12.0459 9.82893 12.0459 8.75026C12.0459 7.67158 11.6217 6.63617 10.865 5.86751C10.1082 5.09884 9.07954 4.65858 8.001 4.64176ZM8.001 6.08276C8.70833 6.08276 9.38669 6.36374 9.88685 6.8639C10.387 7.36406 10.668 8.04242 10.668 8.74976C10.668 9.45709 10.387 10.1355 9.88685 10.6356C9.38669 11.1358 8.70833 11.4168 8.001 11.4168C7.29367 11.4168 6.61531 11.1358 6.11515 10.6356C5.61499 10.1355 5.334 9.45709 5.334 8.74976C5.334 8.04242 5.61499 7.36406 6.11515 6.8639C6.61531 6.36374 7.29367 6.08276 8.001 6.08276Z" fill="#889397"/>
</svg>
