<svg width="30" height="29" viewBox="0 0 30 29" fill="none" xmlns="http://www.w3.org/2000/svg">
<g id="mastercard.svg" clip-path="url(#clip0_1_1016)">
<g id="Clip path group">
<mask id="mask0_1_1016" style="mask-type:luminance" maskUnits="userSpaceOnUse" x="0" y="0" width="29" height="29">
<g id="clip0_2598_6225">
<path id="Vector" d="M28.9677 0.0449219H0.880005V28.0449H28.9677V0.0449219Z" fill="white"/>
</g>
</mask>
<g mask="url(#mask0_1_1016)">
<g id="Group">
<path id="Vector_2" d="M28.967 14.0435C28.967 18.6658 25.222 22.4435 20.5407 22.4435C15.904 22.4435 12.1144 18.6658 12.1144 14.0435C12.1144 9.42133 15.8594 5.64355 20.4961 5.64355C25.222 5.64355 28.967 9.42133 28.967 14.0435Z" fill="#FFB600"/>
<path id="Vector_3" d="M20.5407 5.64355C25.1774 5.64355 28.967 9.42133 28.967 14.0435C28.967 18.6658 25.222 22.4435 20.5407 22.4435C15.904 22.4435 12.1144 18.6658 12.1144 14.0435" fill="#F7981D"/>
<path id="Vector_4" d="M20.5402 5.64355C25.1768 5.64355 28.9665 9.42133 28.9665 14.0435C28.9665 18.6658 25.2214 22.4435 20.5402 22.4435" fill="#FF8500"/>
<path id="Vector_5" d="M9.21713 5.64355C4.62502 5.688 0.880005 9.42133 0.880005 14.0435C0.880005 18.6658 4.62502 22.4435 9.3063 22.4435C11.4909 22.4435 13.4526 21.5991 14.9684 20.2658C15.2805 19.9991 15.548 19.688 15.8155 19.3769H14.0767C13.8538 19.1102 13.6309 18.7991 13.4526 18.5324H16.4397C16.618 18.2658 16.7963 17.9546 16.9301 17.6435H12.9621C12.8284 17.3769 12.6946 17.0658 12.6055 16.7546H17.2422C17.5097 15.9102 17.688 15.0213 17.688 14.088C17.688 13.4658 17.5988 12.888 17.5097 12.3102H12.338C12.3826 11.9991 12.4717 11.7324 12.5609 11.4213H17.1976C17.1084 11.1102 16.9747 10.7991 16.8409 10.5324H12.9176C13.0513 10.2213 13.2297 9.95466 13.408 9.64355H16.3951C16.2167 9.33244 15.9938 9.02133 15.7263 8.75466H14.0767C14.3442 8.44355 14.6117 8.17689 14.9238 7.91022C13.4526 6.53244 11.4463 5.73244 9.26171 5.73244C9.26171 5.64355 9.26171 5.64355 9.21713 5.64355Z" fill="#FF5050"/>
<path id="Vector_6" d="M0.880005 14.044C0.880005 18.6662 4.62502 22.444 9.3063 22.444C11.4909 22.444 13.4526 21.5996 14.9684 20.2662C15.2805 19.9996 15.548 19.6884 15.8155 19.3773H14.0767C13.8538 19.1107 13.6309 18.7996 13.4526 18.5329H16.4397C16.618 18.2662 16.7963 17.9551 16.9301 17.644H12.9621C12.8284 17.3773 12.6946 17.0662 12.6055 16.7551H17.2422C17.5097 15.9107 17.688 15.0218 17.688 14.0884C17.688 13.4662 17.5988 12.8884 17.5097 12.3107H12.338C12.3826 11.9996 12.4717 11.7329 12.5609 11.4218H17.1976C17.1084 11.1107 16.9747 10.7996 16.8409 10.5329H12.9176C13.0513 10.2218 13.2297 9.95513 13.408 9.64402H16.3951C16.2167 9.33291 15.9938 9.0218 15.7263 8.75513H14.0767C14.3442 8.44402 14.6117 8.17735 14.9238 7.91069C13.4526 6.53291 11.4463 5.73291 9.26171 5.73291H9.21713" fill="#E52836"/>
<path id="Vector_7" d="M9.30684 22.4447C11.4914 22.4447 13.4531 21.6002 14.9689 20.2669C15.281 20.0002 15.5485 19.6891 15.816 19.378H14.0773C13.8544 19.1113 13.6314 18.8002 13.4531 18.5335H16.4402C16.6185 18.2669 16.7969 17.9558 16.9306 17.6447H12.9627C12.8289 17.378 12.6952 17.0669 12.606 16.7558H17.2427C17.5102 15.9113 17.6885 15.0224 17.6885 14.0891C17.6885 13.4669 17.5994 12.8891 17.5102 12.3113H12.3385C12.3831 12.0002 12.4723 11.7335 12.5614 11.4224H17.1981C17.109 11.1113 16.9752 10.8002 16.8415 10.5335H12.9181C13.0519 10.2224 13.2302 9.95578 13.4085 9.64467H16.3956C16.2173 9.33356 15.9944 9.02245 15.7269 8.75578H14.0773C14.3448 8.44467 14.6123 8.178 14.9244 7.91134C13.4531 6.53356 11.4803 5.65576 9.29569 5.65576H9.2511" fill="#CB2026"/>
<path id="Vector_8" d="M12.294 16.1782L12.4278 15.4226C12.3832 15.4226 12.294 15.4671 12.2049 15.4671C11.8928 15.4671 11.8482 15.2893 11.8928 15.2004L12.1603 13.6448H12.6507L12.7844 12.8004H12.3386L12.4278 12.2671H11.5361C11.5361 12.2671 11.0011 15.2004 11.0011 15.556C11.0011 16.0893 11.3132 16.3115 11.7144 16.3115C11.9819 16.3115 12.2049 16.2226 12.294 16.1782Z" fill="white"/>
<path id="Vector_9" d="M12.6066 14.7556C12.6066 16 13.4537 16.3111 14.167 16.3111C14.8357 16.3111 15.1032 16.1778 15.1032 16.1778L15.2816 15.3334C15.2816 15.3334 14.7912 15.5556 14.3453 15.5556C13.3645 15.5556 13.5428 14.8445 13.5428 14.8445H15.3707C15.3707 14.8445 15.5045 14.2667 15.5045 14.0445C15.5045 13.4667 15.1924 12.7556 14.2116 12.7556C13.2753 12.6667 12.6066 13.6445 12.6066 14.7556ZM14.167 13.4667C14.6574 13.4667 14.5682 14.0445 14.5682 14.0889H13.5874C13.5874 14.0445 13.6766 13.4667 14.167 13.4667Z" fill="white"/>
<path id="Vector_10" d="M19.8282 16.1773L20.0065 15.1995C20.0065 15.1995 19.5607 15.4218 19.2486 15.4218C18.6244 15.4218 18.3569 14.9329 18.3569 14.3995C18.3569 13.3329 18.8919 12.7551 19.5161 12.7551C19.9619 12.7551 20.3186 13.0217 20.3186 13.0217L20.4524 12.0884C20.4524 12.0884 19.9174 11.8662 19.4269 11.8662C18.4015 11.8662 17.3761 12.7551 17.3761 14.444C17.3761 15.5551 17.9111 16.3106 18.9811 16.3106C19.3378 16.3106 19.8282 16.1773 19.8282 16.1773Z" fill="white"/>
<path id="Vector_11" d="M7.39059 12.666C6.76642 12.666 6.32058 12.8438 6.32058 12.8438L6.18683 13.5993C6.18683 13.5993 6.58808 13.4216 7.16767 13.4216C7.47976 13.4216 7.74726 13.466 7.74726 13.7327C7.74726 13.9104 7.70267 13.9549 7.70267 13.9549C7.70267 13.9549 7.43517 13.9549 7.30142 13.9549C6.5435 13.9549 5.69641 14.266 5.69641 15.2882C5.69641 16.0882 6.23141 16.266 6.5435 16.266C7.16767 16.266 7.43517 15.866 7.47975 15.866L7.43517 16.2216H8.23768L8.59435 13.7771C8.59435 12.7104 7.70267 12.666 7.39059 12.666ZM7.56892 14.666C7.56892 14.7993 7.47976 15.5105 6.94475 15.5105C6.67725 15.5105 6.58808 15.2882 6.58808 15.1549C6.58808 14.9327 6.72183 14.6216 7.39059 14.6216C7.52434 14.666 7.56892 14.666 7.56892 14.666Z" fill="white"/>
<path id="Vector_12" d="M9.44058 16.2666C9.6635 16.2666 10.7781 16.311 10.7781 15.111C10.7781 13.9999 9.70808 14.2221 9.70808 13.7777C9.70808 13.5555 9.88641 13.4666 10.1985 13.4666C10.3323 13.4666 10.8227 13.511 10.8227 13.511L10.9564 12.711C10.9564 12.711 10.6443 12.6221 10.1093 12.6221C9.44058 12.6221 8.77183 12.8888 8.77183 13.7777C8.77183 14.7999 9.88642 14.711 9.88642 15.111C9.88642 15.3777 9.57433 15.4221 9.35141 15.4221C8.95016 15.4221 8.54891 15.2888 8.54891 15.2888L8.41516 16.0888C8.45974 16.1777 8.68266 16.2666 9.44058 16.2666Z" fill="white"/>
<path id="Vector_13" d="M27.2299 11.9556L27.0515 13.1556C27.0515 13.1556 26.6949 12.7112 26.2044 12.7112C25.4019 12.7112 24.6886 13.689 24.6886 14.8445C24.6886 15.5556 25.0453 16.3112 25.8032 16.3112C26.3382 16.3112 26.6503 15.9556 26.6503 15.9556L26.6057 16.2668H27.4974L28.1661 12.0001L27.2299 11.9556ZM26.8286 14.3112C26.8286 14.8001 26.6057 15.4223 26.1153 15.4223C25.8032 15.4223 25.6248 15.1556 25.6248 14.7112C25.6248 14.0001 25.9369 13.5556 26.3382 13.5556C26.6503 13.5556 26.8286 13.7779 26.8286 14.3112Z" fill="white"/>
<path id="Vector_14" d="M2.52983 16.2223L3.06484 13.0223L3.154 16.2223H3.77817L4.93735 13.0223L4.44693 16.2223H5.38318L6.09652 11.9556H4.62526L3.73359 14.5779L3.68901 11.9556H2.39608L1.68274 16.2223H2.52983Z" fill="white"/>
<path id="Vector_15" d="M16.3511 16.2215C16.6186 14.7549 16.6632 13.5549 17.2873 13.7771C17.3765 13.1993 17.5102 12.9771 17.5994 12.7549C17.5994 12.7549 17.5548 12.7549 17.4211 12.7549C17.0198 12.7549 16.7077 13.2882 16.7077 13.2882L16.7969 12.7993H15.9498L15.3702 16.266H16.3511V16.2215Z" fill="white"/>
<path id="Vector_16" d="M21.8789 12.666C21.2547 12.666 20.8089 12.8438 20.8089 12.8438L20.6751 13.5993C20.6751 13.5993 21.0764 13.4216 21.6559 13.4216C21.968 13.4216 22.2355 13.466 22.2355 13.7327C22.2355 13.9104 22.191 13.9549 22.191 13.9549C22.191 13.9549 21.9235 13.9549 21.7897 13.9549C21.0318 13.9549 20.1847 14.266 20.1847 15.2882C20.1847 16.0882 20.7197 16.266 21.0318 16.266C21.6559 16.266 21.9234 15.866 21.968 15.866L21.9234 16.2216H22.726L23.0826 13.7771C23.1272 12.7104 22.191 12.666 21.8789 12.666ZM22.1018 14.666C22.1018 14.7993 22.0126 15.5105 21.4776 15.5105C21.2101 15.5105 21.1209 15.2882 21.1209 15.1549C21.1209 14.9327 21.2547 14.6216 21.9234 14.6216C22.0572 14.666 22.0572 14.666 22.1018 14.666Z" fill="white"/>
<path id="Vector_17" d="M23.8413 16.2215C24.1088 14.7549 24.1534 13.5549 24.7776 13.7771C24.8667 13.1993 25.0005 12.9771 25.0896 12.7549C25.0896 12.7549 25.0451 12.7549 24.9113 12.7549C24.5101 12.7549 24.198 13.2882 24.198 13.2882L24.2871 12.7993H23.4401L22.8605 16.266H23.8413V16.2215Z" fill="white"/>
<path id="Vector_18" d="M10.9112 15.556C10.9112 16.0893 11.2233 16.3115 11.6246 16.3115C11.9367 16.3115 12.2042 16.2226 12.2933 16.1782L12.4271 15.4226C12.3825 15.4226 12.2933 15.4671 12.2042 15.4671C11.8921 15.4671 11.8475 15.2893 11.8921 15.2004L12.1596 13.6448H12.65L12.7838 12.8004H12.3379L12.4271 12.2671" fill="#DCE5E5"/>
<path id="Vector_19" d="M13.0519 14.7556C13.0519 16 13.4531 16.3111 14.1665 16.3111C14.8352 16.3111 15.1027 16.1778 15.1027 16.1778L15.2811 15.3334C15.2811 15.3334 14.7906 15.5556 14.3448 15.5556C13.364 15.5556 13.5423 14.8445 13.5423 14.8445H15.3702C15.3702 14.8445 15.504 14.2667 15.504 14.0445C15.504 13.4667 15.1919 12.7556 14.211 12.7556C13.2748 12.6667 13.0519 13.6445 13.0519 14.7556ZM14.1665 13.4667C14.6569 13.4667 14.7461 14.0445 14.7461 14.0889H13.5869C13.5869 14.0445 13.676 13.4667 14.1665 13.4667Z" fill="#DCE5E5"/>
<path id="Vector_20" d="M19.8296 16.1773L20.008 15.1995C20.008 15.1995 19.5621 15.4218 19.25 15.4218C18.6259 15.4218 18.3584 14.9329 18.3584 14.3995C18.3584 13.3329 18.8934 12.7551 19.5175 12.7551C19.9634 12.7551 20.32 13.0217 20.32 13.0217L20.4538 12.0884C20.4538 12.0884 19.9188 11.8662 19.4284 11.8662C18.4029 11.8662 17.8234 12.7551 17.8234 14.444C17.8234 15.5551 17.9125 16.3106 18.9825 16.3106C19.3392 16.3106 19.8296 16.1773 19.8296 16.1773Z" fill="#DCE5E5"/>
<path id="Vector_21" d="M6.18683 13.6438C6.18683 13.6438 6.58808 13.466 7.16767 13.466C7.47976 13.466 7.74726 13.5104 7.74726 13.7771C7.74726 13.9549 7.70267 13.9993 7.70267 13.9993C7.70267 13.9993 7.43517 13.9993 7.30142 13.9993C6.5435 13.9993 5.69641 14.3104 5.69641 15.3327C5.69641 16.1327 6.23141 16.3104 6.5435 16.3104C7.16767 16.3104 7.43517 15.9104 7.47975 15.9104L7.43517 16.266H8.23768L8.59435 13.8215C8.59435 12.7993 7.70267 12.7549 7.346 12.7549L6.18683 13.6438ZM8.01476 14.666C8.01476 14.7993 7.47976 15.5104 6.94475 15.5104C6.67725 15.5104 6.58808 15.2882 6.58808 15.1549C6.58808 14.9327 6.72183 14.6215 7.39059 14.6215C7.52434 14.666 8.01476 14.666 8.01476 14.666Z" fill="#DCE5E5"/>
<path id="Vector_22" d="M8.46008 16.1777C8.46008 16.1777 8.72758 16.2666 9.4855 16.2666C9.70842 16.2666 10.823 16.311 10.823 15.111C10.823 13.9999 9.753 14.2221 9.753 13.7777C9.753 13.5555 9.93134 13.4666 10.2434 13.4666C10.3772 13.4666 10.8676 13.511 10.8676 13.511L11.0013 12.711C11.0013 12.711 10.6893 12.6221 10.1543 12.6221C9.4855 12.6221 9.26258 12.8888 9.26258 13.7777C9.26258 14.7999 9.93134 14.711 9.93134 15.111C9.93134 15.3777 9.61925 15.4221 9.39633 15.4221" fill="#DCE5E5"/>
<path id="Vector_23" d="M27.0503 13.1546C27.0503 13.1546 26.6936 12.7101 26.2032 12.7101C25.4007 12.7101 25.1332 13.6879 25.1332 14.8435C25.1332 15.5546 25.0441 16.3101 25.802 16.3101C26.337 16.3101 26.6491 15.9546 26.6491 15.9546L26.6045 16.2657H27.4961L28.1649 11.999L27.0503 13.1546ZM27.0057 14.3101C27.0057 14.799 26.6045 15.4212 26.1141 15.4212C25.802 15.4212 25.6236 15.1546 25.6236 14.7101C25.6236 13.999 25.9357 13.5546 26.337 13.5546C26.6491 13.5546 27.0057 13.7768 27.0057 14.3101Z" fill="#DCE5E5"/>
<path id="Vector_24" d="M2.52983 16.2223L3.06484 13.0223L3.154 16.2223H3.77817L4.93735 13.0223L4.44693 16.2223H5.38318L6.09652 11.9556H4.98193L3.73359 14.5779L3.68901 11.9556H3.19859L1.68274 16.2223H2.52983Z" fill="#DCE5E5"/>
<path id="Vector_25" d="M15.4152 16.2215H16.3514C16.6189 14.7549 16.6635 13.5549 17.2877 13.7771C17.3768 13.1993 17.5106 12.9771 17.5998 12.7549C17.5998 12.7549 17.5552 12.7549 17.4214 12.7549C17.0202 12.7549 16.7081 13.2882 16.7081 13.2882L16.7972 12.7993" fill="#DCE5E5"/>
<path id="Vector_26" d="M20.6751 13.6438C20.6751 13.6438 21.0764 13.466 21.6559 13.466C21.968 13.466 22.2355 13.5104 22.2355 13.7771C22.2355 13.9549 22.1909 13.9993 22.1909 13.9993C22.1909 13.9993 21.9234 13.9993 21.7897 13.9993C21.0318 13.9993 20.1847 14.3104 20.1847 15.3327C20.1847 16.1327 20.7197 16.3104 21.0318 16.3104C21.6559 16.3104 21.9234 15.9104 21.968 15.9104L21.9234 16.266H22.726L23.0826 13.8215C23.0826 12.7993 22.1909 12.7549 21.8343 12.7549L20.6751 13.6438ZM22.503 14.666C22.503 14.7993 21.968 15.5104 21.433 15.5104C21.1655 15.5104 21.0764 15.2882 21.0764 15.1549C21.0764 14.9327 21.2101 14.6215 21.8789 14.6215C22.0572 14.666 22.503 14.666 22.503 14.666Z" fill="#DCE5E5"/>
<path id="Vector_27" d="M22.9034 16.2215H23.8397C24.1072 14.7549 24.1518 13.5549 24.7759 13.7771C24.8651 13.1993 24.9989 12.9771 25.088 12.7549C25.088 12.7549 25.0434 12.7549 24.9097 12.7549C24.5084 12.7549 24.1964 13.2882 24.1964 13.2882L24.2855 12.7993" fill="#DCE5E5"/>
</g>
</g>
</g>
</g>
<defs>
<clipPath id="clip0_1_1016">
<rect width="29" height="28" fill="white" transform="translate(0.880005 0.0449219)"/>
</clipPath>
</defs>
</svg>
