<svg width="41" height="29" viewBox="0 0 41 29" fill="none" xmlns="http://www.w3.org/2000/svg">
<g id="paypal.svg" clip-path="url(#clip0_1_1048)">
<g id="Clip path group">
<mask id="mask0_1_1048" style="mask-type:luminance" maskUnits="userSpaceOnUse" x="0" y="0" width="40" height="29">
<g id="clip0_2598_6254">
<path id="Vector" d="M39.9127 0.0449219H0.589996V28.0449H39.9127V0.0449219Z" fill="white"/>
</g>
</mask>
<g mask="url(#mask0_1_1048)">
<g id="Group">
<path id="Vector_2" d="M30.9879 12.3511H28.8658C28.7409 12.3511 28.6161 12.4755 28.5537 12.5999L27.6798 18.0755C27.6798 18.1999 27.7423 18.2621 27.8671 18.2621H28.9906C29.1154 18.2621 29.1778 18.1999 29.1778 18.0755L29.4275 16.5199C29.4275 16.3955 29.5524 16.271 29.7396 16.271H30.4262C31.8618 16.271 32.6732 15.5866 32.8605 14.2177C32.9853 13.6577 32.8605 13.1599 32.6108 12.8488C32.2363 12.5377 31.6745 12.3511 30.9879 12.3511ZM31.2376 14.4044C31.1128 15.151 30.551 15.151 29.9893 15.151H29.6148L29.8644 13.7199C29.8644 13.6577 29.9269 13.5955 30.0517 13.5955H30.1765C30.551 13.5955 30.9255 13.5955 31.1128 13.8444C31.2376 13.9066 31.2376 14.0933 31.2376 14.4044Z" fill="#139AD6"/>
<path id="Vector_3" d="M15.6969 12.3511H13.5748C13.4499 12.3511 13.3251 12.4755 13.2627 12.5999L12.3888 18.0755C12.3888 18.1999 12.4512 18.2621 12.5761 18.2621H13.5748C13.6996 18.2621 13.8244 18.1377 13.8868 18.0132L14.1365 16.5199C14.1365 16.3955 14.2613 16.271 14.4486 16.271H15.1352C16.5708 16.271 17.3822 15.5866 17.5694 14.2177C17.6943 13.6577 17.5694 13.1599 17.3198 12.8488C16.9453 12.5377 16.4459 12.3511 15.6969 12.3511ZM15.9466 14.4044C15.8218 15.151 15.26 15.151 14.6983 15.151H14.3862L14.6358 13.7199C14.6358 13.6577 14.6983 13.5955 14.8231 13.5955H14.9479C15.3224 13.5955 15.6969 13.5955 15.8842 13.8444C15.9466 13.9066 16.009 14.0933 15.9466 14.4044Z" fill="#263B80"/>
<path id="Vector_4" d="M22.1246 14.3417H21.126C21.0636 14.3417 20.9387 14.4039 20.9387 14.4662L20.8763 14.7773L20.8139 14.6528C20.5642 14.3417 20.1273 14.2173 19.628 14.2173C18.5045 14.2173 17.5058 15.0884 17.3186 16.2706C17.1937 16.8928 17.381 17.4528 17.6931 17.8261C18.0051 18.1995 18.4421 18.3239 19.0038 18.3239C19.9401 18.3239 20.4394 17.7639 20.4394 17.7639L20.377 18.075C20.377 18.1995 20.4394 18.2617 20.5642 18.2617H21.5005C21.6253 18.2617 21.7501 18.1372 21.8125 18.0128L22.3743 14.5284C22.3119 14.4662 22.187 14.3417 22.1246 14.3417ZM20.6891 16.3328C20.5642 16.8928 20.1273 17.3284 19.5031 17.3284C19.1911 17.3284 18.9414 17.2039 18.8166 17.0795C18.6917 16.8928 18.6293 16.6439 18.6293 16.3328C18.6917 15.7728 19.1911 15.3373 19.7528 15.3373C20.0649 15.3373 20.2521 15.4617 20.4394 15.5861C20.6266 15.7728 20.6891 16.0839 20.6891 16.3328Z" fill="#263B80"/>
<path id="Vector_5" d="M37.3532 14.3412H36.3545C36.2921 14.3412 36.1673 14.4034 36.1673 14.4657L36.1049 14.7768L36.0424 14.6523C35.7928 14.3412 35.3558 14.2168 34.8565 14.2168C33.733 14.2168 32.7343 15.0879 32.5471 16.2701C32.4222 16.8923 32.6095 17.4523 32.9216 17.8256C33.2337 18.199 33.6706 18.3234 34.2323 18.3234C35.1686 18.3234 35.6679 17.7634 35.6679 17.7634L35.6055 18.0745C35.6055 18.199 35.6679 18.2612 35.7928 18.2612H36.729C36.8539 18.2612 36.9787 18.1368 37.0411 18.0123L37.6029 14.5279C37.5404 14.4657 37.478 14.3412 37.3532 14.3412ZM35.9176 16.3323C35.7928 16.8923 35.3558 17.3279 34.7317 17.3279C34.4196 17.3279 34.1699 17.2034 34.0451 17.079C33.9202 16.8923 33.8578 16.6434 33.8578 16.3323C33.9202 15.7723 34.4196 15.3368 34.9813 15.3368C35.2934 15.3368 35.4807 15.4612 35.6679 15.5857C35.9176 15.7723 35.98 16.0834 35.9176 16.3323Z" fill="#139AD6"/>
<path id="Vector_6" d="M27.5524 14.3389H26.4913C26.3665 14.3389 26.304 14.4012 26.2416 14.4634L24.8684 16.579L24.2443 14.5878C24.1818 14.4634 24.1194 14.4012 23.9322 14.4012H22.9335C22.8087 14.4012 22.7462 14.5256 22.7462 14.6501L23.8698 17.9479L22.8087 19.4412C22.7462 19.5656 22.8087 19.7523 22.9335 19.7523H23.9322C24.057 19.7523 24.1194 19.6901 24.1818 19.6279L27.6148 14.7123C27.8021 14.5256 27.6772 14.3389 27.5524 14.3389Z" fill="#263B80"/>
<path id="Vector_7" d="M38.542 12.5365L37.6681 18.1365C37.6681 18.261 37.7305 18.3232 37.8554 18.3232H38.7292C38.854 18.3232 38.9789 18.1987 39.0413 18.0743L39.9151 12.5987C39.9151 12.4743 39.8527 12.4121 39.7279 12.4121H38.7292C38.6668 12.3499 38.6044 12.4121 38.542 12.5365Z" fill="#139AD6"/>
<path id="Vector_8" d="M7.76796 10.4835C7.33104 9.98571 6.51962 9.73682 5.39611 9.73682H2.27526C2.08801 9.73682 1.90076 9.92349 1.83834 10.1101L0.589996 18.2612C0.589996 18.4479 0.71483 18.5723 0.839664 18.5723H2.7746L3.27393 15.5235V15.6479C3.33635 15.4612 3.5236 15.2746 3.71085 15.2746H4.64711C6.4572 15.2746 7.83037 14.5279 8.26729 12.4746C8.26729 12.4123 8.26729 12.3501 8.26729 12.2879C8.20488 12.2879 8.20488 12.2879 8.26729 12.2879C8.32971 11.479 8.20488 10.9812 7.76796 10.4835Z" fill="#263B80"/>
<path id="Vector_9" d="M8.20362 12.2866C8.20362 12.3488 8.20362 12.411 8.20362 12.4733C7.76671 14.5888 6.39353 15.2733 4.58344 15.2733H3.64718C3.45993 15.2733 3.27268 15.4599 3.21026 15.6466L2.58609 19.4422C2.58609 19.5666 2.64851 19.691 2.83576 19.691H4.4586C4.64585 19.691 4.83311 19.5666 4.83311 19.3799V19.3177L5.14519 17.3888V17.2644C5.14519 17.0777 5.33244 16.9533 5.51969 16.9533H5.76936C7.32979 16.9533 8.57813 16.331 8.89021 14.4644C9.01505 13.7177 8.95263 13.0333 8.57813 12.5977C8.51571 12.4733 8.39088 12.3488 8.20362 12.2866Z" fill="#139AD6"/>
<path id="Vector_10" d="M7.76762 12.1017C7.7052 12.1017 7.64278 12.0395 7.58037 12.0395C7.51795 12.0395 7.45553 12.0395 7.39312 11.9772C7.14345 11.915 6.89378 11.915 6.58169 11.915H4.14743C4.08501 11.915 4.0226 11.915 3.96018 11.9772C3.83535 12.0395 3.77293 12.1639 3.77293 12.2883L3.27359 15.5239V15.6484C3.33601 15.4617 3.52326 15.275 3.71051 15.275H4.64677C6.45686 15.275 7.83003 14.5284 8.26695 12.475C8.26695 12.4128 8.26695 12.3506 8.32937 12.2883C8.20454 12.2261 8.14212 12.1639 8.01729 12.1639C7.83003 12.1017 7.83003 12.1017 7.76762 12.1017Z" fill="#232C65"/>
</g>
</g>
</g>
</g>
<defs>
<clipPath id="clip0_1_1048">
<rect width="40" height="28" fill="white" transform="translate(0.589996 0.0449219)"/>
</clipPath>
</defs>
</svg>
