<svg width="17" height="14" viewBox="0 0 17 14" fill="none" xmlns="http://www.w3.org/2000/svg">
<path id="Vector" d="M5.776 13.7497C11.814 13.7497 15.117 8.74672 15.117 4.41572C15.117 4.27572 15.117 4.13372 15.111 3.99372C15.7541 3.5282 16.3091 2.95187 16.75 2.29172C16.1493 2.55657 15.5128 2.73112 14.861 2.80972C15.5475 2.39935 16.0617 1.75369 16.308 0.992717C15.663 1.37484 14.957 1.64309 14.221 1.78572C13.7262 1.25874 13.0714 0.909634 12.3581 0.792474C11.6448 0.675314 10.9127 0.796638 10.2753 1.13765C9.63796 1.47867 9.13081 2.02035 8.83245 2.67878C8.53409 3.33721 8.46118 4.07565 8.625 4.77972C7.31974 4.71427 6.04282 4.37518 4.87704 3.78446C3.71127 3.19373 2.68268 2.36456 1.858 1.35072C1.43934 2.0738 1.31157 2.92912 1.50065 3.74298C1.68972 4.55685 2.18145 5.26825 2.876 5.73272C2.35554 5.71503 1.84652 5.57528 1.39 5.32472V5.36972C1.3909 6.1272 1.65331 6.86114 2.13287 7.44748C2.61244 8.03382 3.27975 8.43659 4.022 8.58772C3.74026 8.66533 3.44923 8.70402 3.157 8.70272C2.95098 8.70334 2.74538 8.68425 2.543 8.64572C2.75279 9.29777 3.16127 9.86788 3.71125 10.2762C4.26122 10.6845 4.92513 10.9106 5.61 10.9227C4.44656 11.8365 3.0094 12.3321 1.53 12.3297C1.26932 12.3308 1.00882 12.3158 0.75 12.2847C2.25151 13.242 3.9953 13.7503 5.776 13.7497Z" fill="#889397"/>
</svg>
