<svg width="30" height="29" viewBox="0 0 30 29" fill="none" xmlns="http://www.w3.org/2000/svg">
<g id="visa.svg" clip-path="url(#clip0_1_1063)">
<g id="Clip path group">
<mask id="mask0_1_1063" style="mask-type:luminance" maskUnits="userSpaceOnUse" x="0" y="0" width="29" height="29">
<g id="clip0_2598_6200">
<path id="Vector" d="M28.3977 0.0449219H0.309998V28.0449H28.3977V0.0449219Z" fill="white"/>
</g>
</mask>
<g mask="url(#mask0_1_1063)">
<g id="Group">
<path id="Vector_2" d="M10.6069 18.0669L12.0335 10.0669H14.2627L12.8806 18.0669H10.6069Z" fill="#3C58BF"/>
<path id="Vector_3" d="M10.6069 18.0669L12.4348 10.0669H14.2627L12.8806 18.0669H10.6069Z" fill="#293688"/>
<path id="Vector_4" d="M20.9516 10.1563C20.5058 9.97856 19.7924 9.80078 18.9008 9.80078C16.6716 9.80078 15.0666 10.9119 15.0666 12.5119C15.0666 13.7119 16.1812 14.3341 17.0728 14.7341C17.9645 15.1341 18.232 15.4008 18.232 15.7563C18.232 16.2896 17.5187 16.5563 16.8945 16.5563C16.0028 16.5563 15.5124 16.423 14.7545 16.1119L14.4424 15.9785L14.1303 17.8008C14.6653 18.023 15.6462 18.2452 16.6716 18.2452C19.0345 18.2452 20.5949 17.1341 20.5949 15.4452C20.5949 14.5119 20.0153 13.8008 18.6778 13.223C17.8753 12.823 17.3849 12.6008 17.3849 12.2008C17.3849 11.8452 17.7862 11.4896 18.6778 11.4896C19.4358 11.4896 19.9708 11.623 20.372 11.8008L20.5949 11.8896L20.9516 10.1563Z" fill="#3C58BF"/>
<path id="Vector_5" d="M20.9516 10.1563C20.5058 9.97856 19.7924 9.80078 18.9008 9.80078C16.6716 9.80078 15.4678 10.9119 15.4678 12.5119C15.4678 13.7119 16.1812 14.3341 17.0728 14.7341C17.9645 15.1341 18.232 15.4008 18.232 15.7563C18.232 16.2896 17.5187 16.5563 16.8945 16.5563C16.0028 16.5563 15.5124 16.423 14.7545 16.1119L14.4424 15.9785L14.1303 17.8008C14.6653 18.023 15.6462 18.2452 16.6716 18.2452C19.0345 18.2452 20.5949 17.1341 20.5949 15.4452C20.5949 14.5119 20.0153 13.8008 18.6778 13.223C17.8753 12.823 17.3849 12.6008 17.3849 12.2008C17.3849 11.8452 17.7862 11.4896 18.6778 11.4896C19.4358 11.4896 19.9708 11.623 20.372 11.8008L20.5949 11.8896L20.9516 10.1563Z" fill="#293688"/>
<path id="Vector_6" d="M24.7856 10.0669C24.2506 10.0669 23.8493 10.1113 23.6264 10.6447L20.2827 18.0669H22.6902L23.136 16.7335H25.9893L26.2568 18.0669H28.3968L26.5243 10.0669H24.7856ZM23.7602 15.4002C23.8939 15.0002 24.6518 13.0447 24.6518 13.0447C24.6518 13.0447 24.8302 12.5558 24.9639 12.2447L25.0977 13.0002C25.0977 13.0002 25.5435 15.0002 25.6327 15.4447H23.7602V15.4002Z" fill="#3C58BF"/>
<path id="Vector_7" d="M25.3206 10.0669C24.7856 10.0669 24.3843 10.1113 24.1614 10.6447L20.2827 18.0669H22.6902L23.136 16.7335H25.9893L26.2568 18.0669H28.3968L26.5243 10.0669H25.3206ZM23.7602 15.4002C23.9385 14.9558 24.6518 13.0447 24.6518 13.0447C24.6518 13.0447 24.8302 12.5558 24.9639 12.2447L25.0977 13.0002C25.0977 13.0002 25.5435 15.0002 25.6327 15.4447H23.7602V15.4002Z" fill="#293688"/>
<path id="Vector_8" d="M6.50924 15.6679L6.28632 14.5123C5.88507 13.179 4.59214 11.7123 3.16547 11.0012L5.17173 18.1123H7.57924L11.1905 10.1123H8.783L6.50924 15.6679Z" fill="#3C58BF"/>
<path id="Vector_9" d="M6.50924 15.6679L6.28632 14.5123C5.88507 13.179 4.59214 11.7123 3.16547 11.0012L5.17173 18.1123H7.57924L11.1905 10.1123H9.22883L6.50924 15.6679Z" fill="#293688"/>
<path id="Vector_10" d="M0.309998 10.0669L0.71125 10.1558C3.5646 10.8224 5.52628 12.5113 6.2842 14.5113L5.4817 10.7335C5.34794 10.2002 4.94669 10.0669 4.45627 10.0669H0.309998Z" fill="#FFBC00"/>
<path id="Vector_11" d="M0.309998 10.0669C3.16335 10.7335 5.52628 12.4669 6.2842 14.4669L5.52628 11.3113C5.39253 10.778 4.94669 10.4669 4.45627 10.4669L0.309998 10.0669Z" fill="#F7981D"/>
<path id="Vector_12" d="M0.309998 10.0669C3.16335 10.7335 5.52628 12.4669 6.2842 14.4669L5.7492 12.7335C5.61545 12.2002 5.43711 11.6669 4.81294 11.4447L0.309998 10.0669Z" fill="#ED7C00"/>
</g>
</g>
</g>
</g>
<defs>
<clipPath id="clip0_1_1063">
<rect width="29" height="28" fill="white" transform="translate(0.309998 0.0449219)"/>
</clipPath>
</defs>
</svg>
